<svg width="117" height="80" viewBox="0 0 117 80" fill="none" xmlns="http://www.w3.org/2000/svg">
<rect x="0.236389" width="116.667" height="80" rx="10" fill="#FEB4C7"/>
<path fill-rule="evenodd" clip-rule="evenodd" d="M18.3169 51.2654H13.5697V30H18.3169V51.2654ZM30.1687 30H25.5245C25.5245 33.9134 23.7744 37.5052 20.723 39.8552L18.883 41.2718L26.0124 51.2663H31.874L25.3141 42.0698C28.4236 38.8865 30.1687 34.6038 30.1687 30ZM37.7406 51.2596H33.2574V30.0041H37.7406V51.2596ZM51.2858 36.5563V37.4969C50.0761 36.6485 48.616 36.1499 47.0412 36.1499C42.8734 36.1499 39.4947 39.6234 39.4947 43.9083C39.4947 48.1931 42.8734 51.6667 47.0412 51.6667C48.616 51.6667 50.0761 51.1681 51.2858 50.3199V51.2596H55.5679V36.5563H51.2858ZM51.2728 43.9084C51.2728 45.9976 49.5356 47.6914 47.3927 47.6914C45.25 47.6914 43.5128 45.9976 43.5128 43.9084C43.5128 41.8191 45.25 40.1257 47.3927 40.1257C49.5356 40.1257 51.2728 41.8191 51.2728 43.9084ZM96.46 37.4969V36.5563H100.742V51.2596H96.46V50.3199C95.2503 51.1681 93.7902 51.6667 92.2152 51.6667C88.0473 51.6667 84.6687 48.1931 84.6687 43.9083C84.6687 39.6234 88.0473 36.1499 92.2152 36.1499C93.7902 36.1499 95.2503 36.6485 96.46 37.4969ZM92.5667 47.6914C94.7096 47.6914 96.4466 45.9976 96.4466 43.9084C96.4466 41.8191 94.7096 40.1257 92.5667 40.1257C90.4238 40.1257 88.6868 41.8191 88.6868 43.9084C88.6868 45.9976 90.4238 47.6914 92.5667 47.6914ZM77.0597 36.1608C75.3492 36.1608 73.7304 36.7067 72.6481 38.213V36.5571H68.3846V51.2596H72.7005V43.5329C72.7005 41.297 74.1589 40.2021 75.9148 40.2021C77.7967 40.2021 78.8786 41.3579 78.8786 43.5025V51.2596H83.1555V41.9094C83.1555 38.4878 80.5093 36.1608 77.0597 36.1608ZM62.1919 36.5565V38.4715C63.0502 37.3228 64.6496 36.5574 66.3885 36.5574V40.8358L66.3767 40.8354L66.3646 40.8348L66.3523 40.8342L66.346 40.834L66.3376 40.8338C64.6434 40.8338 62.2017 42.0788 62.2017 44.3948V51.2596H57.8078V36.5565H62.1919ZM102.6 48.8071C102.6 47.2813 103.803 46.0445 105.287 46.0445C106.771 46.0445 107.975 47.2813 107.975 48.8071C107.975 50.3326 106.771 51.5695 105.287 51.5695C103.803 51.5695 102.6 50.3326 102.6 48.8071Z" fill="#17120F"/>
</svg>
