<svg width="118" height="80" viewBox="0 0 118 80" fill="none" xmlns="http://www.w3.org/2000/svg">
<path fill-rule="evenodd" clip-rule="evenodd" d="M74.6845 62.6866C87.2468 62.6866 97.4305 52.3847 97.4305 39.6766C97.4305 26.9686 87.2468 16.6667 74.6845 16.6667C69.0546 16.6667 63.9023 18.7359 59.9304 22.1635C55.9585 18.7359 50.8062 16.6667 45.1762 16.6667C32.614 16.6667 22.4303 26.9686 22.4303 39.6767C22.4303 52.3847 32.614 62.6866 45.1762 62.6866C50.8062 62.6866 55.9585 60.6174 59.9304 57.1898C63.9023 60.6174 69.0546 62.6866 74.6845 62.6866Z" fill="#ED0006"/>
<path fill-rule="evenodd" clip-rule="evenodd" d="M59.9304 57.1898C64.821 52.9693 67.9222 46.6893 67.9222 39.6766C67.9222 32.6639 64.821 26.3839 59.9304 22.1635C63.9023 18.7359 69.0545 16.6667 74.6845 16.6667C87.2467 16.6667 97.4304 26.9686 97.4304 39.6766C97.4304 52.3847 87.2467 62.6866 74.6845 62.6866C69.0545 62.6866 63.9023 60.6174 59.9304 57.1898Z" fill="#F9A000"/>
<path fill-rule="evenodd" clip-rule="evenodd" d="M59.9305 57.1896C64.8211 52.9692 67.9222 46.6892 67.9222 39.6766C67.9222 32.6639 64.8211 26.384 59.9305 22.1635C55.0399 26.384 51.9388 32.6639 51.9388 39.6766C51.9388 46.6892 55.0399 52.9692 59.9305 57.1896Z" fill="#FF5E00"/>
</svg>
