<svg width="93" height="33" viewBox="0 0 93 33" fill="none" xmlns="http://www.w3.org/2000/svg">
<g id="Payoneer">
<path id="Payoneer_2" fill-rule="evenodd" clip-rule="evenodd" d="M0.499939 25.2007C0.560973 24.8727 0.616869 24.555 0.671664 24.2437C0.756355 23.7624 0.838414 23.296 0.932748 22.8297C1.33226 20.7203 1.73455 18.6137 2.13684 16.5071C2.53913 14.4005 2.94142 12.2939 3.34094 10.1845C3.39643 9.91737 3.47411 9.73926 3.74046 9.69474C5.81572 9.38306 7.90208 9.16044 9.97734 9.68361C11.7863 10.1289 13.0514 11.409 13.2623 12.9117C13.6951 15.906 11.9527 18.2992 9.36697 19.1564C8.00196 19.6016 6.61475 19.7129 5.20535 19.5793C4.87242 19.546 4.77254 19.635 4.71705 19.9578C4.41741 21.5941 4.10668 23.2193 3.78485 24.8445C3.76265 24.978 3.64058 25.1895 3.56289 25.1895C2.80868 25.2062 2.06685 25.2042 1.29579 25.2021C1.03441 25.2014 0.769662 25.2007 0.499939 25.2007ZM5.90366 16.9414H5.90367H5.90368H5.90369C6.33777 16.9532 6.74767 16.9644 7.14733 16.919C8.30149 16.7965 9.2226 16.2734 9.74419 15.1714C10.3324 13.9247 9.91065 12.6 8.80089 12.2104C8.01295 11.9322 7.20282 11.9878 6.39269 12.0991C6.29281 12.1103 6.15964 12.2661 6.13745 12.3663C5.9823 13.1817 5.82716 14.0006 5.66619 14.8503L5.66593 14.8517L5.6659 14.8518L5.66562 14.8533L5.66476 14.8578C5.53832 15.5252 5.40829 16.2116 5.27183 16.9301C5.48878 16.9301 5.6989 16.9358 5.90364 16.9414H5.90364H5.90365H5.90365H5.90366ZM20.176 23.0634C20.0004 23.2466 19.8359 23.4309 19.6752 23.611C19.328 24 18.9981 24.3696 18.6113 24.6663C17.446 25.568 16.1143 25.7683 14.7715 25.145C13.4397 24.5327 12.896 23.3417 12.8405 21.9391C12.7184 18.9893 13.7505 16.5516 16.2253 14.8596C17.7789 13.791 19.5657 13.4682 21.419 13.5684C22.032 13.6046 22.6404 13.7113 23.2501 13.8182C23.5786 13.8758 23.9075 13.9335 24.2378 13.9803C24.6151 14.0359 24.6706 14.2474 24.604 14.5702C24.5149 15.0358 24.4249 15.5008 24.3348 15.9655L24.3348 15.9656L24.3348 15.9656L24.3348 15.9656L24.3348 15.9656L24.3348 15.9657C23.9987 17.7012 23.6634 19.4327 23.3833 21.1711C23.2226 22.1663 23.1585 23.1857 23.0951 24.195C23.084 24.371 23.073 24.5467 23.0614 24.722C23.0392 25.0782 22.9504 25.2229 22.5842 25.2118C21.8962 25.1895 21.2081 25.1895 20.5201 25.2118C20.1649 25.2229 20.0429 25.0893 20.0761 24.7442C20.1078 24.363 20.1282 23.9705 20.1494 23.5626L20.1494 23.5624L20.1494 23.5623L20.1494 23.5622L20.1494 23.5622L20.1494 23.5621C20.1579 23.3984 20.1665 23.2323 20.176 23.0634ZM20.9528 16.1842C19.8763 15.8837 18.9774 16.0952 18.2227 16.7297C16.8022 17.9319 16.1586 19.4902 16.2806 21.3492C16.3139 21.9169 16.5359 22.4623 17.1352 22.7072C17.7344 22.9521 18.2782 22.774 18.7443 22.3733C19.0218 22.1284 19.2881 21.8501 19.4879 21.5384C20.2706 20.34 20.4845 18.9883 20.7016 17.6152C20.777 17.139 20.8527 16.6601 20.9528 16.1842ZM36.6783 22.4179C37.2887 24.377 38.9644 25.4678 41.9053 25.4678C43.9251 25.4122 45.9338 24.2657 47.1878 21.9058C47.8537 20.6369 48.0978 19.2788 48.009 17.854C47.9314 16.4849 47.3876 15.3272 46.2778 14.5035C45.1125 13.6353 43.7808 13.4572 42.3603 13.613C37.6105 14.1473 35.6684 19.1898 36.6783 22.4179ZM39.8387 20.7829V20.7828V20.7826C39.8399 20.7259 39.8411 20.6696 39.8411 20.6145C39.8744 19.3344 40.1852 18.1434 40.9509 17.0859C41.2949 16.6184 41.7277 16.2622 42.3048 16.1286C43.4812 15.8615 44.4467 16.5405 44.5576 17.8206C44.6908 19.3901 44.3135 20.8372 43.3258 22.095C42.9485 22.5625 42.4713 22.8853 41.8609 22.941C40.7622 23.0412 39.9299 22.2954 39.8411 21.1266C39.8337 21.0148 39.8362 20.8981 39.8387 20.7831V20.7829ZM50.6502 13.8467H53.4691C53.4247 14.4478 53.3803 15.0266 53.3248 15.6166C53.4276 15.5206 53.527 15.4257 53.6245 15.3327C53.8321 15.1345 54.0309 14.9448 54.2348 14.7706C55.3335 13.8133 56.5875 13.3903 58.0413 13.6241C59.2398 13.8244 60.0722 14.7038 60.2053 15.9394C60.3501 17.2251 60.1096 18.4721 59.8697 19.7165L59.8441 19.8493L59.8169 19.9912C59.7197 20.4963 59.6235 21.0015 59.5274 21.5063L59.5273 21.5067L59.5272 21.5074L59.5271 21.5082C59.3162 22.6157 59.1057 23.7216 58.8847 24.8222C58.8514 24.9669 58.685 25.1784 58.574 25.1895C57.6196 25.2118 56.6652 25.2006 55.7108 25.1895C55.6788 25.1895 55.6468 25.1722 55.5982 25.1458C55.5793 25.1356 55.558 25.124 55.5332 25.1116C55.7108 24.1877 55.8883 23.2527 56.0548 22.3176C56.3101 20.8817 56.5542 19.4569 56.7762 18.021C56.8205 17.7761 56.7984 17.52 56.7651 17.2752C56.6763 16.418 56.0437 16.0284 55.2225 16.2845C54.4235 16.5405 53.9463 17.1638 53.5578 17.854C52.9808 18.8669 52.781 19.9912 52.5812 21.1155C52.5314 21.3931 52.4821 21.6701 52.4328 21.9468L52.4323 21.95C52.2625 22.9039 52.0934 23.8541 51.9043 24.8111C51.871 24.9558 51.7045 25.1784 51.5935 25.1895C50.8153 25.2161 50.03 25.2145 49.1928 25.2127H49.1921H49.1915C48.9785 25.2122 48.7621 25.2118 48.5417 25.2118C49.2741 21.3826 49.9622 17.6314 50.6502 13.8467ZM66.653 22.8742C65.4767 22.7295 64.6888 21.9058 64.7664 20.7481C65.0118 20.7481 65.2559 20.7519 65.4987 20.7556L65.4989 20.7556C65.981 20.763 66.4582 20.7704 66.9305 20.7481C68.0735 20.6814 69.1944 20.4921 70.2376 19.969C71.5693 19.3011 72.1908 18.1991 72.0909 16.7631C71.991 15.3049 71.2031 14.2475 69.7937 13.8245C67.6851 13.19 65.743 13.6352 64.0895 15.0489C62.0808 16.7631 61.3262 19.0339 61.6147 21.6275C61.8145 23.4642 62.8133 24.7777 64.6333 25.2452C66.5865 25.7461 68.5064 25.479 70.3597 24.722C70.4928 24.6664 70.6482 24.4549 70.6371 24.3213C70.6105 23.7781 70.5554 23.235 70.5004 22.6918C70.4866 22.5559 70.4729 22.4201 70.4595 22.2843C70.4231 22.2843 70.396 22.2824 70.3752 22.281C70.3453 22.2789 70.3284 22.2777 70.3153 22.2843C70.1932 22.3288 70.0711 22.3733 69.9602 22.4178C68.8948 22.8297 67.7961 23.0078 66.653 22.8742ZM68.3731 17.943C67.6961 18.2992 65.9427 18.5107 65.0882 18.3326C65.2657 16.8522 66.8305 15.6945 68.1511 16.0173C68.595 16.1286 68.9168 16.3624 68.9945 16.841C69.0722 17.3086 68.8392 17.6982 68.3731 17.943ZM75.853 20.7926C75.7531 21.8835 76.53 22.7183 77.7174 22.8742C78.8272 23.0077 79.8926 22.8408 80.9357 22.4623C81.0319 22.4261 81.1248 22.39 81.2268 22.3503C81.3131 22.3167 81.406 22.2805 81.5128 22.2397C81.5345 22.4755 81.5586 22.7065 81.5823 22.9344C81.6314 23.4058 81.679 23.8635 81.7015 24.3212C81.7126 24.4548 81.5572 24.6663 81.4351 24.722C79.5485 25.5012 77.6064 25.7683 75.62 25.2229C73.8332 24.7331 72.901 23.4307 72.6791 21.6497C72.4016 19.3678 72.9898 17.3085 74.5768 15.6166C76.2858 13.8021 78.3833 13.1565 80.8026 13.8244C82.2786 14.2363 83.0665 15.3049 83.1553 16.8076C83.2441 18.2769 82.5782 19.3789 81.191 20.0246C79.7927 20.6702 78.3056 20.7703 76.7963 20.8037C76.4967 20.7926 76.1859 20.7926 75.853 20.7926ZM76.1749 18.4216C76.3768 18.409 76.5751 18.399 76.7706 18.3892C77.2628 18.3645 77.7371 18.3407 78.2058 18.2769C78.6497 18.2213 79.0936 18.0877 79.4931 17.8985C79.9259 17.7092 80.1368 17.3085 80.0702 16.8187C80.0036 16.3512 79.6929 16.1286 79.26 16.0173C77.9505 15.6611 76.3192 16.8633 76.1749 18.4216ZM83.7656 22.8742C83.6214 23.6312 83.4882 24.377 83.3439 25.2007C83.5662 25.2007 83.7853 25.2011 84.0018 25.2016C84.8557 25.2034 85.6701 25.2051 86.4846 25.1784C86.5623 25.1784 86.6843 24.9669 86.7065 24.8333C86.8197 24.2774 86.9247 23.7187 87.0296 23.1602C87.223 22.1307 87.4163 21.1017 87.6609 20.0914C88.2047 17.8429 89.1258 17.0637 91.3121 16.7743C91.4008 16.7631 91.5451 16.663 91.5673 16.585C91.7066 15.9454 91.8313 15.3008 91.9608 14.6322C92.0273 14.2885 92.095 13.9386 92.1666 13.5796C90.058 13.357 88.8817 14.5814 87.8607 16.0841L87.877 15.8682C87.9271 15.2031 87.9782 14.5264 88.0382 13.8133C87.8075 13.8133 87.5811 13.8126 87.3579 13.8119C86.7006 13.8098 86.071 13.8079 85.4414 13.8245C85.3526 13.8356 85.1861 14.036 85.175 14.1584C84.9383 17.0193 84.3779 19.8174 83.8178 22.6135L83.7656 22.8742Z" fill="black"/>
<path id="Payoneer_3" fill-rule="evenodd" clip-rule="evenodd" d="M54.3832 0.417841C54.2709 0.3881 54.1585 0.358358 54.0461 0.333313C53.7021 0.333313 53.3581 0.333313 52.9918 0.344444C52.8668 0.369537 52.7417 0.396892 52.6156 0.424469C52.462 0.45806 52.3069 0.491981 52.1484 0.522545C50.4505 0.845353 48.8524 1.43531 47.3098 2.21451C43.9694 3.90646 40.9731 6.09933 38.2874 8.69293C36.5007 10.4072 34.7695 12.1993 33.0937 14.036C30.1529 17.264 27.6337 20.8149 25.625 24.7109C24.5929 26.7257 23.6607 28.785 23.239 31.0223C23.1613 31.4342 23.2945 31.9129 23.4277 32.3247C23.4832 32.4917 23.7939 32.6141 24.0048 32.6809C24.0602 32.7032 24.2267 32.4249 24.3044 32.2691C24.332 32.2087 24.3602 32.1468 24.3891 32.0836C24.871 31.0278 25.5228 29.6 26.0882 28.6548C27.2867 26.6512 28.233 25.1005 29.5758 23.197C31.7287 20.1359 34.2443 17.1325 36.8855 14.4832C39.3825 11.9787 41.8831 9.73927 45.0237 8.04731C46.4664 7.27925 47.9424 6.52232 49.4517 5.89897C52.0596 4.81923 54.7786 4.08457 57.5752 3.67271C57.8748 3.62818 58.2743 3.39442 58.3742 3.14954C58.463 2.92691 58.2521 2.50392 58.0413 2.29242C57.1868 1.41305 56.188 0.745172 54.945 0.544808C54.7578 0.51698 54.5705 0.467411 54.3832 0.417841ZM28.9765 15.6055C29.5092 14.1585 29.7755 12.6557 29.8088 11.0974C29.794 10.9304 29.7817 10.7634 29.7693 10.5964C29.7447 10.2625 29.72 9.92856 29.6756 9.59462C29.376 7.01216 28.2662 4.81929 26.5017 2.9381C26.2908 2.7266 26.0023 2.55963 25.7138 2.45945C25.4252 2.34814 25.2366 2.51511 25.2587 2.84905C25.2593 2.8561 25.2598 2.86316 25.2604 2.87022C25.282 3.1531 25.3045 3.44606 25.3586 3.72842C25.4366 4.17323 25.514 4.61858 25.5915 5.06423C25.867 6.64829 26.1431 8.23616 26.4462 9.81725C26.7458 11.409 27.0788 12.9897 27.4339 14.5592C27.556 15.0601 27.7557 15.561 27.9999 16.0285C28.1885 16.3847 28.4549 16.3513 28.699 16.0285L28.699 16.0285C28.81 15.8949 28.921 15.7614 28.9765 15.6055Z" fill="#FC461E"/>
</g>
</svg>
