<svg width="118" height="80" viewBox="0 0 118 80" fill="none" xmlns="http://www.w3.org/2000/svg">
<path fill-rule="evenodd" clip-rule="evenodd" d="M63.5878 27.1397L57.6613 28.4116V23.6067L63.5878 22.3584V27.1397ZM39.5042 25.0905L33.7431 26.3153L33.7195 45.1816C33.7195 48.6675 36.3403 51.2349 39.8348 51.2349C41.7709 51.2349 43.1876 50.8816 43.9667 50.4576V45.6762C43.2112 45.9824 39.4806 47.0659 39.4806 43.58V35.2185H43.9667V30.2016H39.4806L39.5042 25.0905ZM102.57 40.5887C102.57 34.559 99.6419 29.8012 94.0461 29.8012C88.4266 29.8012 85.0266 34.559 85.0266 40.5416C85.0266 47.6312 89.0405 51.2113 94.8017 51.2113C97.6114 51.2113 99.7364 50.5754 101.342 49.6803V44.9697C99.7364 45.7705 97.8947 46.2651 95.5572 46.2651C93.2669 46.2651 91.2364 45.4643 90.9766 42.685H102.522C102.522 42.5552 102.531 42.2602 102.541 41.9205L102.541 41.9196L102.541 41.9187L102.541 41.9174C102.554 41.4564 102.57 40.9136 102.57 40.5887ZM90.9058 38.3512C90.9058 35.6897 92.5349 34.5826 94.0224 34.5826C95.4627 34.5826 96.9974 35.6897 96.9974 38.3512H90.9058ZM25.5504 34.9124C24.299 34.9124 23.5434 35.2657 23.5434 36.1843C23.5434 37.1873 24.8437 37.6285 26.4569 38.1758C29.0868 39.0681 32.5483 40.2425 32.5629 44.5929C32.5629 48.809 29.1865 51.235 24.2754 51.235C22.2448 51.235 20.0253 50.8346 17.8295 49.8924V44.2867C19.8128 45.3702 22.3156 46.171 24.2754 46.171C25.5976 46.171 26.542 45.8177 26.542 44.7342C26.542 43.6233 25.1324 43.1155 23.4307 42.5024C20.839 41.5688 17.5698 40.3911 17.5698 36.467C17.5698 32.298 20.7573 29.8013 25.5504 29.8013C27.5101 29.8013 29.4462 30.1075 31.4059 30.8848V36.4199C29.6115 35.4542 27.3448 34.9124 25.5504 34.9124ZM51.3101 31.9446L50.9323 30.2017H45.8323V50.8109H51.7351V36.8437C53.1282 35.0301 55.4893 35.3599 56.2212 35.6189V30.2017C55.4657 29.919 52.7032 29.4008 51.3101 31.9446ZM57.6609 30.2017H63.5874V50.811H57.6609V30.2017ZM71.2847 31.6384C72.1111 30.8847 73.5986 29.8012 75.9125 29.8012C80.0444 29.8012 83.9403 33.5227 83.9639 40.3532C83.9639 47.8196 80.1153 51.2113 75.8889 51.2113C73.8111 51.2113 72.5597 50.3399 71.7097 49.7275L71.6861 56.3931L65.7833 57.6414V30.1781H70.9777L71.2847 31.6384ZM71.7096 44.9226C72.2763 45.535 73.1027 46.0296 74.4957 46.0296C76.668 46.0296 78.1319 43.6742 78.1319 40.5181C78.1319 37.4326 76.6444 35.0301 74.4957 35.0301C73.1499 35.0301 72.2999 35.5012 71.686 36.1843L71.7096 44.9226Z" fill="#6461FC"/>
</svg>
