<svg aria-hidden="true" style="position: absolute; width: 0; height: 0; overflow: hidden;" version="1.1" xmlns="http://www.w3.org/2000/svg" xmlns:xlink="http://www.w3.org/1999/xlink">
<defs>
<symbol id="icon-logo" viewBox="0 0 37 32">
<path fill="#023047" style="fill: var(--color1, #023047); stroke: var(--color1, #023047)" stroke="#023047" stroke-linejoin="round" stroke-linecap="round" stroke-miterlimit="10" stroke-width="3.1403" d="M9.822 2.286h16.546c4.162 0 7.537 3.374 7.537 7.537v12.355c0 4.162-3.374 7.537-7.537 7.537h-16.546c-4.162 0-7.537-3.374-7.537-7.537v-12.355c0-4.162 3.374-7.537 7.537-7.537z"></path>
<path fill="#4cbfff" style="fill: var(--color2, #4cbfff)" d="M35.472 10.975h-12.718c-2.775 0-5.024 2.25-5.024 5.024s2.25 5.025 5.024 5.025h12.718v-10.049z"></path>
<path fill="#fff" style="fill: var(--color3, #fff)" d="M25.098 16c0 1.387-1.125 2.512-2.512 2.512s-2.512-1.125-2.512-2.512c0-1.387 1.125-2.512 2.512-2.512s2.512 1.125 2.512 2.512z"></path>
</symbol>
<symbol id="icon-logo-negative" viewBox="0 0 37 32">
<path fill="#fff" style="fill: var(--color1, #fff); stroke: var(--color1, #fff)" stroke="#fff" stroke-linejoin="round" stroke-linecap="round" stroke-miterlimit="10" stroke-width="3.1403" d="M9.822 2.286h16.546c4.162 0 7.537 3.374 7.537 7.537v12.355c0 4.162-3.374 7.537-7.537 7.537h-16.546c-4.162 0-7.537-3.374-7.537-7.537v-12.355c0-4.162 3.374-7.537 7.537-7.537z"></path>
<path fill="#4cbfff" style="fill: var(--color2, #4cbfff)" d="M35.472 10.975h-12.718c-2.775 0-5.024 2.25-5.024 5.024s2.25 5.025 5.024 5.025h12.718v-10.049z"></path>
<path fill="#fff" style="fill: var(--color1, #fff)" d="M25.098 16c0 1.387-1.125 2.512-2.512 2.512s-2.512-1.125-2.512-2.512c0-1.387 1.125-2.512 2.512-2.512s2.512 1.125 2.512 2.512z"></path>
</symbol>

<symbol id="icon-ShieldCheck" viewBox="0 0 32 32">
<path fill="#2d38a8" style="fill: var(--color1, #2d38a8)" d="M26 5h-20c-0.53 0-1.039 0.211-1.414 0.586s-0.586 0.884-0.586 1.414v7.346c0 11.201 9.477 14.917 11.375 15.549 0.405 0.138 0.845 0.138 1.25 0 1.9-0.631 11.375-4.348 11.375-15.549v-7.346c0-0.53-0.211-1.039-0.586-1.414s-0.884-0.586-1.414-0.586zM21.708 13.707l-7 7c-0.093 0.093-0.203 0.167-0.325 0.217s-0.252 0.076-0.383 0.076-0.262-0.026-0.383-0.076c-0.121-0.050-0.232-0.124-0.325-0.217l-3-3c-0.188-0.188-0.293-0.442-0.293-0.707s0.105-0.52 0.293-0.708c0.188-0.188 0.442-0.293 0.708-0.293s0.52 0.105 0.708 0.293l2.292 2.293 6.292-6.293c0.093-0.093 0.203-0.167 0.325-0.217s0.251-0.076 0.383-0.076 0.262 0.026 0.383 0.076c0.121 0.050 0.232 0.124 0.325 0.217s0.167 0.203 0.217 0.325c0.050 0.121 0.076 0.251 0.076 0.383s-0.026 0.262-0.076 0.383c-0.050 0.121-0.124 0.232-0.217 0.325z"></path>
</symbol>

<symbol id="icon-playstore" viewBox="0 0 32 32">
<path fill="#32bbff" style="fill: var(--color1, #32bbff)" d="M23.898 10.976c-3.717-2.079-9.684-5.418-18.938-10.6-0.624-0.412-1.342-0.466-1.962-0.256l15.878 15.878 5.022-5.022z"></path>
<path fill="#32bbff" style="fill: var(--color1, #32bbff)" d="M2.998 0.121c-0.116 0.039-0.229 0.087-0.338 0.144-0.685 0.371-1.188 1.083-1.188 1.985v27.498c0 0.902 0.503 1.615 1.188 1.985 0.108 0.057 0.221 0.105 0.337 0.145l15.879-15.878-15.878-15.878z"></path>
<path fill="#32bbff" style="fill: var(--color1, #32bbff)" d="M18.876 15.999l-15.879 15.878c0.62 0.211 1.338 0.162 1.962-0.256 8.975-5.026 14.874-8.325 18.635-10.422 0.105-0.059 0.207-0.116 0.309-0.173l-5.027-5.027z"></path>
<path fill="#2c9fd9" style="fill: var(--color2, #2c9fd9)" d="M1.472 15.999v13.749c0 0.902 0.503 1.615 1.188 1.985 0.108 0.057 0.221 0.105 0.337 0.145l15.879-15.878h-17.404z"></path>
<path fill="#29cc5e" style="fill: var(--color3, #29cc5e)" d="M4.96 0.377c-0.741-0.489-1.615-0.475-2.3-0.112l15.975 15.975 5.263-5.263c-3.717-2.079-9.684-5.418-18.938-10.6z"></path>
<path fill="#d93f21" style="fill: var(--color4, #d93f21)" d="M18.635 15.758l-15.975 15.975c0.685 0.363 1.559 0.384 2.3-0.112 8.975-5.026 14.874-8.325 18.635-10.422 0.105-0.059 0.207-0.116 0.309-0.173l-5.268-5.268z"></path>
<path fill="#ffd500" style="fill: var(--color5, #ffd500)" d="M30.528 15.999c0-0.762-0.384-1.531-1.146-1.957 0 0-1.425-0.795-5.793-3.238l-5.195 5.195 5.2 5.2c4.32-2.425 5.788-3.243 5.788-3.243 0.762-0.426 1.146-1.195 1.146-1.957z"></path>
<path fill="#fa0" style="fill: var(--color6, #fa0)" d="M29.382 17.956c0.762-0.426 1.146-1.195 1.146-1.957h-12.134l5.2 5.2c4.32-2.425 5.788-3.243 5.788-3.243z"></path>
</symbol>

<symbol id="icon-play-store-badge" viewBox="0 0 108 32">
<path fill="#000" style="fill: var(--color1, #000)" d="M3.636 0.364h100.727c1.807 0 3.273 1.465 3.273 3.273v24.727c0 1.807-1.465 3.273-3.273 3.273h-100.727c-1.807 0-3.273-1.465-3.273-3.273v-24.727c0-1.807 1.465-3.273 3.273-3.273z"></path>
<path fill="none" stroke="#a6a6a6" style="stroke: var(--color2, #a6a6a6)" stroke-linejoin="miter" stroke-linecap="butt" stroke-miterlimit="4" stroke-width="0.7273" d="M3.636 0.364h100.727c1.807 0 3.273 1.465 3.273 3.273v24.727c0 1.807-1.465 3.273-3.273 3.273h-100.727c-1.807 0-3.273-1.465-3.273-3.273v-24.727c0-1.807 1.465-3.273 3.273-3.273z"></path>
<path fill="#fff" style="fill: var(--color3, #fff)" d="M54.509 17.401c-1.882 0-3.415 1.431-3.415 3.402 0 1.959 1.534 3.402 3.415 3.402s3.416-1.443 3.416-3.402c-0.001-1.971-1.534-3.402-3.416-3.402zM54.509 22.866c-1.031 0-1.92-0.85-1.92-2.062 0-1.225 0.89-2.062 1.92-2.062s1.92 0.838 1.92 2.062c0 1.211-0.889 2.062-1.92 2.062zM47.058 17.401c-1.882 0-3.415 1.431-3.415 3.402 0 1.959 1.534 3.402 3.415 3.402s3.416-1.443 3.416-3.402c0-1.971-1.534-3.402-3.416-3.402zM47.058 22.866c-1.031 0-1.92-0.85-1.92-2.062 0-1.225 0.89-2.062 1.92-2.062s1.92 0.838 1.92 2.062c0.001 1.211-0.889 2.062-1.92 2.062zM38.195 18.446v1.443h3.454c-0.103 0.812-0.374 1.405-0.786 1.817-0.502 0.502-1.289 1.057-2.668 1.057-2.126 0-3.789-1.714-3.789-3.841s1.662-3.841 3.789-3.841c1.147 0 1.985 0.451 2.603 1.031l1.018-1.018c-0.864-0.825-2.010-1.456-3.622-1.456-2.913 0-5.362 2.371-5.362 5.284s2.449 5.284 5.362 5.284c1.572 0 2.758-0.516 3.686-1.482 0.954-0.954 1.25-2.294 1.25-3.377 0-0.334-0.026-0.644-0.078-0.902l-4.858 0.001zM74.441 19.566c-0.283-0.76-1.147-2.166-2.913-2.166-1.753 0-3.21 1.379-3.21 3.402 0 1.907 1.444 3.402 3.377 3.402 1.559 0 2.462-0.954 2.836-1.508l-1.16-0.774c-0.386 0.567-0.915 0.941-1.676 0.941s-1.302-0.348-1.65-1.031l4.549-1.882-0.154-0.386zM69.802 20.701c-0.038-1.315 1.018-1.985 1.779-1.985 0.593 0 1.095 0.297 1.263 0.722l-3.042 1.263zM66.103 24h1.494v-10.001h-1.494v10.001zM63.654 18.162h-0.051c-0.335-0.4-0.98-0.761-1.791-0.761-1.702 0-3.261 1.495-3.261 3.416 0 1.907 1.559 3.39 3.261 3.39 0.812 0 1.456-0.361 1.791-0.773h0.051v0.49c0 1.302-0.696 1.998-1.817 1.998-0.915 0-1.482-0.657-1.714-1.211l-1.302 0.542c0.374 0.902 1.366 2.010 3.016 2.010 1.753 0 3.235-1.031 3.235-3.545v-6.109h-1.418v0.554h-0.001zM61.94 22.866c-1.031 0-1.894-0.864-1.894-2.050 0-1.199 0.863-2.075 1.894-2.075 1.018 0 1.817 0.876 1.817 2.075 0 1.186-0.799 2.050-1.817 2.050zM81.445 13.999h-3.577v10.001h1.492v-3.789h2.084c1.655 0 3.282-1.198 3.282-3.106s-1.627-3.106-3.281-3.106zM81.483 18.819h-2.123v-3.428h2.123c1.116 0 1.75 0.924 1.75 1.714 0 0.774-0.633 1.714-1.75 1.714zM90.709 17.383c-1.081 0-2.2 0.476-2.663 1.531l1.324 0.553c0.284-0.553 0.812-0.734 1.364-0.734 0.772 0 1.556 0.463 1.569 1.286v0.103c-0.271-0.154-0.849-0.386-1.557-0.386-1.428 0-2.882 0.785-2.882 2.251 0 1.338 1.171 2.2 2.483 2.2 1.004 0 1.557-0.45 1.904-0.978h0.052v0.772h1.441v-3.834c0.001-1.774-1.326-2.765-3.036-2.765zM90.528 22.864c-0.488 0-1.17-0.245-1.17-0.85 0-0.772 0.849-1.068 1.583-1.068 0.655 0 0.964 0.142 1.363 0.334-0.116 0.927-0.913 1.583-1.776 1.583zM98.994 17.602l-1.711 4.336h-0.051l-1.776-4.336h-1.608l2.663 6.060-1.519 3.371h1.557l4.105-9.431h-1.66zM85.55 24h1.492v-10.001h-1.492v10.001z"></path>
<path fill="#fff" style="fill: var(--color3, #fff)" d="M37.934 8.194c0 0.67-0.198 1.204-0.596 1.602-0.451 0.474-1.040 0.71-1.763 0.71-0.693 0-1.282-0.24-1.766-0.72s-0.727-1.076-0.727-1.786c0-0.711 0.242-1.306 0.727-1.786s1.074-0.721 1.766-0.721c0.344 0 0.673 0.067 0.985 0.201s0.563 0.313 0.75 0.536l-0.422 0.422c-0.318-0.38-0.755-0.57-1.314-0.57-0.506 0-0.942 0.178-1.311 0.533s-0.553 0.817-0.553 1.384c0 0.567 0.184 1.029 0.553 1.384s0.806 0.533 1.311 0.533c0.536 0 0.983-0.178 1.341-0.536 0.232-0.233 0.366-0.557 0.402-0.972h-1.743v-0.577h2.326c0.024 0.126 0.034 0.246 0.034 0.362z"></path>
<path fill="#fff" style="fill: var(--color3, #fff)" d="M41.622 6.19h-2.186v1.522h1.971v0.577h-1.971v1.522h2.186v0.59h-2.802v-4.8h2.802v0.59z"></path>
<path fill="#fff" style="fill: var(--color3, #fff)" d="M44.223 10.4h-0.617v-4.21h-1.341v-0.59h3.298v0.59h-1.341v4.21z"></path>
<path fill="#fff" style="fill: var(--color3, #fff)" d="M47.95 10.4v-4.8h0.617v4.8h-0.617z"></path>
<path fill="#fff" style="fill: var(--color3, #fff)" d="M51.303 10.4h-0.617v-4.21h-1.341v-0.59h3.298v0.59h-1.341v4.21z"></path>
<path fill="#fff" style="fill: var(--color3, #fff)" d="M58.887 9.78c-0.472 0.485-1.058 0.727-1.76 0.727s-1.288-0.242-1.759-0.727c-0.472-0.485-0.707-1.078-0.707-1.78s0.235-1.295 0.707-1.78c0.471-0.485 1.058-0.728 1.759-0.728 0.698 0 1.283 0.244 1.757 0.731s0.71 1.079 0.71 1.777c0 0.702-0.236 1.295-0.707 1.78zM55.823 9.378c0.355 0.36 0.79 0.539 1.304 0.539s0.95-0.18 1.304-0.539c0.355-0.36 0.534-0.819 0.534-1.378s-0.178-1.018-0.534-1.378c-0.354-0.36-0.79-0.539-1.304-0.539s-0.949 0.18-1.304 0.539c-0.354 0.36-0.533 0.819-0.533 1.378s0.178 1.018 0.533 1.378z"></path>
<path fill="#fff" style="fill: var(--color3, #fff)" d="M60.46 10.4v-4.8h0.75l2.333 3.734h0.026l-0.026-0.925v-2.809h0.617v4.8h-0.644l-2.441-3.915h-0.026l0.026 0.925v2.99h-0.615z"></path>
<path fill="#000" style="fill: var(--color1, #000)" d="M8.349 6.030c-0.233 0.246-0.37 0.629-0.37 1.124v17.693c0 0.496 0.138 0.878 0.37 1.124l0.059 0.058 9.911-9.911v-0.234l-9.911-9.912-0.059 0.058z"></path>
<path fill="#000" style="fill: var(--color1, #000)" d="M21.622 19.422l-3.303-3.305v-0.234l3.304-3.304 0.074 0.042 3.914 2.224c1.118 0.635 1.118 1.674 0 2.31l-3.99 2.266z"></path>
<path fill="#000" style="fill: var(--color1, #000)" d="M21.698 19.38l-3.379-3.379-9.97 9.97c0.368 0.39 0.977 0.438 1.662 0.050l11.686-6.641z"></path>
<path fill="#000" style="fill: var(--color1, #000)" d="M21.698 12.622l-11.686-6.64c-0.686-0.39-1.294-0.341-1.662 0.050l9.97 9.97 3.378-3.38z"></path>
</symbol>

<symbol id="icon-app-store-badge" viewBox="0 0 96 32">
<path fill="#000" style="fill: var(--color1, #000)" d="M5.091 0.364h85.818c2.611 0 4.727 2.116 4.727 4.727v21.818c0 2.611-2.116 4.727-4.727 4.727h-85.818c-2.611 0-4.727-2.116-4.727-4.727v-21.818c0-2.611 2.116-4.727 4.727-4.727z"></path>
<path fill="none" stroke="#a6a6a6" style="stroke: var(--color2, #a6a6a6)" stroke-linejoin="miter" stroke-linecap="butt" stroke-miterlimit="4" stroke-width="0.7273" d="M5.091 0.364h85.818c2.611 0 4.727 2.116 4.727 4.727v21.818c0 2.611-2.116 4.727-4.727 4.727h-85.818c-2.611 0-4.727-2.116-4.727-4.727v-21.818c0-2.611 2.116-4.727 4.727-4.727z"></path>
<path fill="#fff" style="fill: var(--color3, #fff)" d="M65.221 15.361v1.833h-1.149v1.202h1.149v4.084c0 1.395 0.631 1.952 2.218 1.952 0.279 0 0.544-0.033 0.777-0.073v-1.189c-0.199 0.020-0.325 0.033-0.544 0.033-0.711 0-1.023-0.332-1.023-1.089v-3.719h1.567v-1.202h-1.567v-1.833h-1.428z"></path>
<path fill="#fff" style="fill: var(--color3, #fff)" d="M72.259 24.531c2.112 0 3.407-1.414 3.407-3.759 0-2.331-1.302-3.752-3.407-3.752-2.112 0-3.413 1.421-3.413 3.752 0 2.344 1.295 3.759 3.413 3.759zM72.259 23.263c-1.242 0-1.939-0.91-1.939-2.49 0-1.567 0.697-2.484 1.939-2.484 1.235 0 1.939 0.916 1.939 2.484 0 1.574-0.704 2.49-1.939 2.49z"></path>
<path fill="#fff" style="fill: var(--color3, #fff)" d="M76.773 24.392h1.428v-4.27c0-1.016 0.764-1.7 1.847-1.7 0.252 0 0.677 0.047 0.796 0.086v-1.408c-0.153-0.040-0.425-0.060-0.637-0.060-0.943 0-1.747 0.518-1.953 1.229h-0.106v-1.109h-1.375v7.232z"></path>
<path fill="#fff" style="fill: var(--color3, #fff)" d="M84.389 18.236c1.056 0 1.746 0.737 1.78 1.873h-3.652c0.080-1.129 0.817-1.873 1.873-1.873zM86.162 22.44c-0.265 0.564-0.857 0.877-1.72 0.877-1.143 0-1.879-0.803-1.926-2.072v-0.080h5.107v-0.498c0-2.271-1.215-3.646-3.228-3.646-2.039 0-3.334 1.468-3.334 3.779s1.268 3.732 3.34 3.732c1.654 0 2.809-0.797 3.135-2.092h-1.375z"></path>
<path fill="#fff" style="fill: var(--color3, #fff)" d="M55.858 21.721c0.11 1.776 1.59 2.911 3.792 2.911 2.354 0 3.827-1.191 3.827-3.090 0-1.494-0.84-2.32-2.877-2.794l-1.094-0.268c-1.294-0.303-1.817-0.709-1.817-1.418 0-0.895 0.812-1.48 2.030-1.48 1.156 0 1.955 0.571 2.099 1.487h1.501c-0.090-1.672-1.562-2.849-3.579-2.849-2.168 0-3.614 1.177-3.614 2.946 0 1.459 0.819 2.326 2.615 2.746l1.28 0.31c1.315 0.31 1.893 0.764 1.893 1.521 0 0.881-0.908 1.521-2.147 1.521-1.328 0-2.251-0.599-2.381-1.542h-1.528z"></path>
<path fill="#fff" style="fill: var(--color3, #fff)" d="M41.068 17.041c-0.983 0-1.833 0.491-2.271 1.315h-0.106v-1.195h-1.375v9.636h1.428v-3.5h0.113c0.378 0.764 1.195 1.215 2.225 1.215 1.826 0 2.988-1.441 2.988-3.739s-1.162-3.732-3.002-3.732zM40.663 23.23c-1.195 0-1.946-0.943-1.946-2.45 0-1.514 0.75-2.457 1.952-2.457 1.209 0 1.932 0.923 1.932 2.45 0 1.534-0.724 2.457-1.939 2.457z"></path>
<path fill="#fff" style="fill: var(--color3, #fff)" d="M49.065 17.041c-0.983 0-1.833 0.491-2.271 1.315h-0.106v-1.195h-1.375v9.636h1.428v-3.5h0.113c0.378 0.764 1.195 1.215 2.225 1.215 1.826 0 2.988-1.441 2.988-3.739s-1.162-3.732-3.002-3.732zM48.66 23.23c-1.195 0-1.946-0.943-1.946-2.45 0-1.514 0.75-2.457 1.952-2.457 1.209 0 1.932 0.923 1.932 2.45 0 1.534-0.724 2.457-1.939 2.457z"></path>
<path fill="#fff" style="fill: var(--color3, #fff)" d="M34.754 24.392h1.638l-3.586-9.932h-1.659l-3.586 9.932h1.583l0.915-2.636h3.786l0.908 2.636zM31.898 16.263h0.117l1.439 4.198h-3.001l1.445-4.198z"></path>
<path fill="#fff" style="fill: var(--color3, #fff)" d="M28.521 6.969v4.791h1.73c1.428 0 2.255-0.88 2.255-2.411 0-1.507-0.833-2.381-2.255-2.381h-1.73zM29.265 7.646h0.903c0.993 0 1.58 0.631 1.58 1.713 0 1.099-0.578 1.723-1.58 1.723h-0.903v-3.437z"></path>
<path fill="#fff" style="fill: var(--color3, #fff)" d="M35.037 11.83c1.056 0 1.703-0.707 1.703-1.879 0-1.165-0.651-1.876-1.703-1.876-1.056 0-1.707 0.711-1.707 1.876 0 1.172 0.648 1.879 1.707 1.879zM35.037 11.196c-0.621 0-0.97-0.455-0.97-1.245 0-0.784 0.349-1.242 0.97-1.242 0.618 0 0.97 0.458 0.97 1.242 0 0.787-0.352 1.245-0.97 1.245z"></path>
<path fill="#fff" style="fill: var(--color3, #fff)" d="M42.254 8.144h-0.714l-0.644 2.759h-0.056l-0.744-2.759h-0.684l-0.744 2.759h-0.053l-0.648-2.759h-0.724l0.996 3.616h0.734l0.744-2.663h0.056l0.747 2.663h0.74l0.993-3.616z"></path>
<path fill="#fff" style="fill: var(--color3, #fff)" d="M43.077 11.76h0.714v-2.115c0-0.564 0.335-0.916 0.863-0.916s0.78 0.289 0.78 0.87v2.162h0.714v-2.341c0-0.86-0.445-1.345-1.252-1.345-0.544 0-0.903 0.242-1.079 0.644h-0.053v-0.574h-0.687v3.616z"></path>
<path fill="#fff" style="fill: var(--color3, #fff)" d="M47.272 11.76h0.714v-5.027h-0.714v5.027z"></path>
<path fill="#fff" style="fill: var(--color3, #fff)" d="M50.671 11.83c1.056 0 1.703-0.707 1.703-1.879 0-1.165-0.651-1.876-1.703-1.876-1.056 0-1.707 0.711-1.707 1.876 0 1.172 0.648 1.879 1.707 1.879zM50.671 11.196c-0.621 0-0.97-0.455-0.97-1.245 0-0.784 0.349-1.242 0.97-1.242 0.618 0 0.97 0.458 0.97 1.242 0 0.787-0.352 1.245-0.97 1.245z"></path>
<path fill="#fff" style="fill: var(--color3, #fff)" d="M54.501 11.219c-0.388 0-0.671-0.189-0.671-0.515 0-0.319 0.226-0.488 0.724-0.521l0.883-0.056v0.302c0 0.448-0.398 0.79-0.936 0.79zM54.318 11.82c0.475 0 0.87-0.206 1.086-0.568h0.056v0.508h0.687v-2.47c0-0.764-0.511-1.215-1.418-1.215-0.82 0-1.404 0.398-1.478 1.019h0.691c0.080-0.256 0.355-0.402 0.754-0.402 0.488 0 0.74 0.216 0.74 0.598v0.312l-0.98 0.056c-0.86 0.053-1.345 0.428-1.345 1.079 0 0.661 0.508 1.082 1.205 1.082z"></path>
<path fill="#fff" style="fill: var(--color3, #fff)" d="M58.57 11.82c0.498 0 0.92-0.236 1.136-0.631h0.056v0.571h0.684v-5.027h-0.714v1.986h-0.053c-0.196-0.398-0.614-0.634-1.109-0.634-0.913 0-1.501 0.724-1.501 1.866 0 1.146 0.581 1.869 1.501 1.869zM58.773 8.725c0.598 0 0.973 0.475 0.973 1.229 0 0.757-0.372 1.225-0.973 1.225-0.604 0-0.966-0.462-0.966-1.229 0-0.76 0.365-1.225 0.966-1.225z"></path>
<path fill="#fff" style="fill: var(--color3, #fff)" d="M65.076 11.83c1.056 0 1.703-0.707 1.703-1.879 0-1.165-0.651-1.876-1.703-1.876-1.056 0-1.707 0.711-1.707 1.876 0 1.172 0.647 1.879 1.707 1.879zM65.076 11.196c-0.621 0-0.97-0.455-0.97-1.245 0-0.784 0.349-1.242 0.97-1.242 0.618 0 0.97 0.458 0.97 1.242 0 0.787-0.352 1.245-0.97 1.245z"></path>
<path fill="#fff" style="fill: var(--color3, #fff)" d="M67.724 11.76h0.714v-2.115c0-0.564 0.335-0.916 0.863-0.916s0.78 0.289 0.78 0.87v2.162h0.714v-2.341c0-0.86-0.445-1.345-1.252-1.345-0.544 0-0.903 0.242-1.079 0.644h-0.053v-0.574h-0.687v3.616z"></path>
<path fill="#fff" style="fill: var(--color3, #fff)" d="M74.083 7.244v0.916h-0.575v0.601h0.575v2.042c0 0.697 0.316 0.976 1.109 0.976 0.14 0 0.272-0.017 0.388-0.037v-0.594c-0.1 0.010-0.163 0.017-0.272 0.017-0.356 0-0.511-0.166-0.511-0.544v-1.859h0.783v-0.601h-0.783v-0.916h-0.714z"></path>
<path fill="#fff" style="fill: var(--color3, #fff)" d="M76.539 11.76h0.713v-2.112c0-0.548 0.326-0.916 0.91-0.916 0.505 0 0.774 0.292 0.774 0.87v2.158h0.713v-2.334c0-0.86-0.474-1.348-1.245-1.348-0.544 0-0.926 0.242-1.102 0.647h-0.057v-1.992h-0.707v5.027z"></path>
<path fill="#fff" style="fill: var(--color3, #fff)" d="M82.225 8.682c0.528 0 0.873 0.369 0.89 0.936h-1.826c0.040-0.564 0.408-0.936 0.936-0.936zM83.111 10.784c-0.132 0.282-0.428 0.438-0.86 0.438-0.571 0-0.94-0.402-0.963-1.036v-0.040h2.553v-0.249c0-1.136-0.608-1.823-1.614-1.823-1.020 0-1.667 0.734-1.667 1.889s0.634 1.866 1.67 1.866c0.827 0 1.405-0.398 1.567-1.046h-0.687z"></path>
<path fill="#fff" style="fill: var(--color3, #fff)" d="M19.815 16.241c0.017-1.345 0.74-2.617 1.885-3.322-0.723-1.032-1.933-1.687-3.193-1.726-1.343-0.141-2.646 0.804-3.33 0.804-0.698 0-1.752-0.79-2.887-0.766-1.479 0.048-2.859 0.889-3.578 2.182-1.547 2.679-0.393 6.616 1.089 8.781 0.742 1.060 1.608 2.245 2.742 2.203 1.11-0.046 1.524-0.708 2.864-0.708 1.327 0 1.716 0.708 2.873 0.681 1.191-0.019 1.941-1.065 2.656-2.135 0.533-0.756 0.943-1.59 1.215-2.474-1.399-0.592-2.334-2-2.335-3.519z"></path>
<path fill="#fff" style="fill: var(--color3, #fff)" d="M17.63 9.769c0.649-0.779 0.969-1.781 0.892-2.793-0.992 0.104-1.908 0.578-2.566 1.328-0.643 0.732-0.978 1.716-0.915 2.689 0.992 0.010 1.968-0.451 2.589-1.224z"></path>
</symbol>
<symbol id="icon-coins" viewBox="0 0 32 32">
<path fill="#ad6b00" style="fill: var(--color1, #ad6b00)" d="M23 11.196v-0.696c0-3.135-4.729-5.5-11-5.5s-11 2.365-11 5.5v5c0 2.611 3.281 4.686 8 5.308v0.692c0 3.135 4.729 5.5 11 5.5s11-2.365 11-5.5v-5c0-2.588-3.178-4.665-8-5.304zM7 18.359c-2.449-0.684-4-1.81-4-2.859v-1.759c1.020 0.722 2.386 1.305 4 1.696v2.921zM17 15.437c1.614-0.391 2.98-0.974 4-1.696v1.759c0 1.049-1.551 2.175-4 2.859v-2.921zM15 24.359c-2.449-0.684-4-1.81-4-2.859v-0.521c0.329 0.013 0.661 0.021 1 0.021 0.485 0 0.959-0.016 1.424-0.044 0.517 0.185 1.043 0.342 1.576 0.47v2.932zM15 18.781c-0.993 0.147-1.996 0.22-3 0.219-1.004 0.001-2.007-0.072-3-0.219v-2.974c0.995 0.13 1.997 0.194 3 0.192 1.003 0.001 2.005-0.063 3-0.192v2.974zM23 24.781c-1.989 0.292-4.011 0.292-6 0v-2.981c0.994 0.134 1.997 0.2 3 0.2 1.003 0.001 2.005-0.063 3-0.192v2.974zM29 21.5c0 1.049-1.551 2.175-4 2.859v-2.921c1.614-0.391 2.98-0.974 4-1.696v1.759z"></path>
</symbol>
<symbol id="icon-klarna" viewBox="0 0 47 32">
<path fill="#feb4c7" style="fill: var(--color1, #feb4c7)" d="M4.095 0h38.667c2.209 0 4 1.791 4 4v24c0 2.209-1.791 4-4 4h-38.667c-2.209 0-4-1.791-4-4v-24c0-2.209 1.791-4 4-4z"></path>
<path fill="#17120f" style="fill: var(--color2, #17120f)" d="M7.327 20.506h-1.899v-8.506h1.899v8.506zM12.067 12h-1.858c0 1.565-0.7 3.002-1.921 3.942l-0.736 0.567 2.852 3.998h2.345l-2.624-3.679c1.244-1.273 1.942-2.986 1.942-4.828zM15.096 20.504h-1.793v-8.502h1.793v8.502zM20.514 14.623v0.376c-0.484-0.339-1.068-0.539-1.698-0.539-1.667 0-3.019 1.389-3.019 3.103s1.351 3.103 3.019 3.103c0.63 0 1.214-0.199 1.698-0.539v0.376h1.713v-5.881h-1.713zM20.509 17.563c0 0.836-0.695 1.513-1.552 1.513s-1.552-0.678-1.552-1.513c0-0.836 0.695-1.513 1.552-1.513s1.552 0.677 1.552 1.513zM38.584 14.999v-0.376h1.713v5.881h-1.713v-0.376c-0.484 0.339-1.068 0.539-1.698 0.539-1.667 0-3.019-1.389-3.019-3.103s1.351-3.103 3.019-3.103c0.63 0 1.214 0.199 1.698 0.539zM37.027 19.077c0.857 0 1.552-0.678 1.552-1.513s-0.695-1.513-1.552-1.513-1.552 0.677-1.552 1.513c0 0.836 0.695 1.513 1.552 1.513zM30.824 14.464c-0.684 0-1.332 0.218-1.765 0.821v-0.662h-1.705v5.881h1.726v-3.091c0-0.894 0.583-1.332 1.286-1.332 0.753 0 1.186 0.462 1.186 1.32v3.103h1.711v-3.74c0-1.369-1.058-2.299-2.438-2.299zM24.877 14.623v0.766c0.343-0.459 0.983-0.766 1.679-0.766v1.711l-0.005-0-0.010-0-0.003-0-0.003-0c-0.678 0-1.654 0.498-1.654 1.424v2.746h-1.758v-5.881h1.754zM41.040 19.523c0-0.61 0.481-1.105 1.075-1.105s1.075 0.495 1.075 1.105c0 0.61-0.482 1.105-1.075 1.105s-1.075-0.495-1.075-1.105z"></path>
</symbol>
<symbol id="icon-stripe" viewBox="0 0 47 32">
<path fill="#6461fc" style="fill: var(--color11, #6461fc)" d="M25.435 10.856l-2.371 0.509v-1.922l2.371-0.499v1.913zM15.802 10.036l-2.304 0.49-0.009 7.547c0 1.394 1.048 2.421 2.446 2.421 0.774 0 1.341-0.141 1.653-0.311v-1.913c-0.302 0.122-1.794 0.556-1.794-0.838v-3.345h1.794v-2.007h-1.794l0.009-2.044zM41.028 16.235c0-2.412-1.171-4.315-3.41-4.315-2.248 0-3.608 1.903-3.608 4.296 0 2.836 1.606 4.268 3.91 4.268 1.124 0 1.974-0.254 2.616-0.612v-1.884c-0.642 0.32-1.379 0.518-2.314 0.518-0.916 0-1.728-0.32-1.832-1.432h4.618c0-0.052 0.004-0.17 0.008-0.306v-0.001c0.005-0.184 0.012-0.402 0.012-0.531zM36.362 15.34c0-1.065 0.652-1.507 1.247-1.507 0.576 0 1.19 0.443 1.19 1.507h-2.437zM10.22 13.965c-0.501 0-0.803 0.141-0.803 0.509 0 0.401 0.52 0.578 1.165 0.797 1.052 0.357 2.437 0.827 2.442 2.567 0 1.686-1.351 2.657-3.315 2.657-0.812 0-1.7-0.16-2.578-0.537v-2.242c0.793 0.433 1.794 0.754 2.578 0.754 0.529 0 0.907-0.141 0.907-0.575 0-0.444-0.564-0.647-1.245-0.893-1.037-0.373-2.344-0.845-2.344-2.414 0-1.668 1.275-2.666 3.192-2.666 0.784 0 1.558 0.122 2.342 0.433v2.214c-0.718-0.386-1.624-0.603-2.342-0.603zM20.524 12.778l-0.151-0.697h-2.040v8.244h2.361v-5.587c0.557-0.725 1.502-0.594 1.794-0.49v-2.167c-0.302-0.113-1.407-0.32-1.964 0.697zM23.064 12.081h2.371v8.244h-2.371v-8.244zM28.514 12.655c0.331-0.301 0.926-0.735 1.851-0.735 1.653 0 3.211 1.489 3.221 4.221 0 2.987-1.539 4.343-3.23 4.343-0.831 0-1.332-0.349-1.672-0.594l-0.009 2.666-2.361 0.499v-10.985h2.078l0.123 0.584zM28.684 17.969c0.227 0.245 0.557 0.443 1.114 0.443 0.869 0 1.454-0.942 1.454-2.205 0-1.234-0.595-2.195-1.454-2.195-0.538 0-0.878 0.188-1.124 0.462l0.009 3.495z"></path>
</symbol>
<symbol id="icon-mastercard" viewBox="0 0 47 32">
<path fill="#ed0006" style="fill: var(--color3, #ed0006)" d="M29.874 25.075c5.025 0 9.098-4.121 9.098-9.204s-4.073-9.204-9.098-9.204c-2.252 0-4.313 0.828-5.902 2.199-1.589-1.371-3.65-2.199-5.902-2.199-5.025 0-9.098 4.121-9.098 9.204s4.073 9.204 9.098 9.204c2.252 0 4.313-0.828 5.902-2.199 1.589 1.371 3.65 2.199 5.902 2.199z"></path>
<path fill="#f9a000" style="fill: var(--color4, #f9a000)" d="M23.972 22.876c1.956-1.688 3.197-4.2 3.197-7.005s-1.24-5.317-3.197-7.005c1.589-1.371 3.65-2.199 5.902-2.199 5.025 0 9.098 4.121 9.098 9.204s-4.073 9.204-9.098 9.204c-2.252 0-4.313-0.828-5.902-2.199z"></path>
<path fill="#ff5e00" style="fill: var(--color5, #ff5e00)" d="M23.972 22.876c1.956-1.688 3.197-4.2 3.197-7.005s-1.24-5.317-3.197-7.005c-1.956 1.688-3.197 4.2-3.197 7.005s1.24 5.317 3.197 7.005z"></path>
</symbol>
<symbol id="icon-payoneer" viewBox="0 0 47 32">
<path fill="#000" style="fill: var(--color6, #000)" d="M5.4 19.28c0.024-0.131 0.047-0.258 0.069-0.383 0.034-0.193 0.067-0.379 0.104-0.566 0.16-0.844 0.321-1.686 0.482-2.529s0.322-1.685 0.482-2.529c0.022-0.107 0.053-0.178 0.16-0.196 0.83-0.125 1.665-0.214 2.495-0.004 0.724 0.178 1.23 0.69 1.314 1.291 0.173 1.198-0.524 2.155-1.558 2.498-0.546 0.178-1.101 0.223-1.665 0.169-0.133-0.013-0.173 0.022-0.195 0.151-0.12 0.655-0.244 1.305-0.373 1.955-0.009 0.053-0.058 0.138-0.089 0.138-0.302 0.007-0.598 0.006-0.907 0.005-0.105-0-0.21-0.001-0.318-0.001zM7.561 15.977v0 0 0c0.174 0.005 0.338 0.009 0.497-0.009 0.462-0.049 0.83-0.258 1.039-0.699 0.235-0.499 0.067-1.029-0.377-1.184-0.315-0.111-0.639-0.089-0.963-0.045-0.040 0.004-0.093 0.067-0.102 0.107-0.062 0.326-0.124 0.654-0.188 0.994l-0 0.001v0l-0 0.001-0 0.002c-0.051 0.267-0.103 0.542-0.157 0.829 0.087 0 0.171 0.002 0.253 0.005v0 0h0zM13.27 18.425c-0.070 0.073-0.136 0.147-0.2 0.219-0.139 0.156-0.271 0.303-0.426 0.422-0.466 0.361-0.999 0.441-1.536 0.191-0.533-0.245-0.75-0.721-0.772-1.282-0.049-1.18 0.364-2.155 1.354-2.832 0.621-0.427 1.336-0.557 2.077-0.516 0.245 0.014 0.489 0.057 0.732 0.1 0.131 0.023 0.263 0.046 0.395 0.065 0.151 0.022 0.173 0.107 0.146 0.236-0.036 0.186-0.072 0.372-0.108 0.558v0c-0.134 0.694-0.269 1.387-0.381 2.082-0.064 0.398-0.090 0.806-0.115 1.21-0.004 0.070-0.009 0.141-0.013 0.211-0.009 0.142-0.044 0.2-0.191 0.196-0.275-0.009-0.55-0.009-0.826 0-0.142 0.004-0.191-0.049-0.178-0.187 0.013-0.152 0.021-0.309 0.029-0.473v-0c0.003-0.065 0.007-0.132 0.011-0.199zM13.581 15.674c-0.431-0.12-0.79-0.036-1.092 0.218-0.568 0.481-0.826 1.104-0.777 1.848 0.013 0.227 0.102 0.445 0.342 0.543s0.457 0.027 0.644-0.134c0.111-0.098 0.218-0.209 0.297-0.334 0.313-0.479 0.399-1.020 0.485-1.569 0.030-0.19 0.060-0.382 0.1-0.572zM19.871 18.167c0.244 0.784 0.914 1.22 2.091 1.22 0.808-0.022 1.611-0.481 2.113-1.425 0.266-0.508 0.364-1.051 0.328-1.621-0.031-0.548-0.249-1.011-0.692-1.34-0.466-0.347-0.999-0.419-1.567-0.356-1.9 0.214-2.677 2.231-2.273 3.522zM21.135 17.513v-0c0-0.023 0.001-0.045 0.001-0.067 0.013-0.512 0.138-0.988 0.444-1.411 0.138-0.187 0.311-0.329 0.542-0.383 0.471-0.107 0.857 0.165 0.901 0.677 0.053 0.628-0.098 1.207-0.493 1.71-0.151 0.187-0.342 0.316-0.586 0.338-0.439 0.040-0.772-0.258-0.808-0.726-0.003-0.045-0.002-0.091-0.001-0.137v-0zM25.46 14.739h1.128c-0.018 0.24-0.036 0.472-0.058 0.708 0.041-0.038 0.081-0.076 0.12-0.114 0.083-0.079 0.163-0.155 0.244-0.225 0.439-0.383 0.941-0.552 1.523-0.459 0.479 0.080 0.812 0.432 0.866 0.926 0.058 0.514-0.038 1.013-0.134 1.511l-0.010 0.053-0.011 0.057c-0.039 0.202-0.077 0.404-0.116 0.606l-0 0-0 0-0 0c-0.084 0.443-0.169 0.885-0.257 1.326-0.013 0.058-0.080 0.142-0.124 0.147-0.382 0.009-0.764 0.004-1.145 0-0.013 0-0.026-0.007-0.045-0.017-0.008-0.004-0.016-0.009-0.026-0.014 0.071-0.37 0.142-0.744 0.209-1.118 0.102-0.574 0.2-1.144 0.289-1.719 0.018-0.098 0.009-0.2-0.004-0.298-0.036-0.343-0.289-0.499-0.617-0.396-0.32 0.102-0.51 0.352-0.666 0.628-0.231 0.405-0.311 0.855-0.391 1.305-0.020 0.111-0.040 0.222-0.059 0.333l-0 0.001c-0.068 0.382-0.136 0.762-0.211 1.144-0.013 0.058-0.080 0.147-0.124 0.151-0.311 0.011-0.625 0.010-0.96 0.009h-0.001c-0.085-0-0.172-0-0.26-0 0.293-1.532 0.568-3.032 0.843-4.546zM31.861 18.35c-0.471-0.058-0.786-0.387-0.755-0.85 0.098 0 0.196 0.002 0.293 0.003h0c0.193 0.003 0.384 0.006 0.573-0.003 0.457-0.027 0.906-0.102 1.323-0.312 0.533-0.267 0.781-0.708 0.741-1.282-0.040-0.583-0.355-1.006-0.919-1.175-0.843-0.254-1.62-0.076-2.282 0.49-0.803 0.686-1.105 1.594-0.99 2.631 0.080 0.735 0.479 1.26 1.207 1.447 0.781 0.2 1.549 0.094 2.291-0.209 0.053-0.022 0.115-0.107 0.111-0.16-0.011-0.217-0.033-0.435-0.055-0.652-0.006-0.054-0.011-0.109-0.016-0.163-0.015 0-0.025-0.001-0.034-0.001-0.012-0.001-0.019-0.001-0.024 0.001-0.049 0.018-0.098 0.036-0.142 0.053-0.426 0.165-0.866 0.236-1.323 0.183zM32.549 16.377c-0.271 0.142-0.972 0.227-1.314 0.156 0.071-0.592 0.697-1.055 1.225-0.926 0.178 0.045 0.306 0.138 0.337 0.329 0.031 0.187-0.062 0.343-0.249 0.441zM35.541 17.517c-0.040 0.436 0.271 0.77 0.746 0.833 0.444 0.053 0.87-0.013 1.287-0.165 0.038-0.014 0.076-0.029 0.116-0.045 0.035-0.013 0.072-0.028 0.114-0.044 0.009 0.094 0.018 0.187 0.028 0.278 0.020 0.189 0.039 0.372 0.048 0.555 0.004 0.053-0.058 0.138-0.107 0.16-0.755 0.312-1.531 0.419-2.326 0.2-0.715-0.196-1.088-0.717-1.176-1.429-0.111-0.913 0.124-1.736 0.759-2.413 0.684-0.726 1.523-0.984 2.49-0.717 0.59 0.165 0.906 0.592 0.941 1.193 0.036 0.588-0.231 1.029-0.786 1.287-0.559 0.258-1.154 0.298-1.758 0.312-0.12-0.004-0.244-0.004-0.377-0.004zM35.67 16.569c0.081-0.005 0.16-0.009 0.238-0.013 0.197-0.010 0.387-0.019 0.574-0.045 0.178-0.022 0.355-0.076 0.515-0.151 0.173-0.076 0.257-0.236 0.231-0.432-0.027-0.187-0.151-0.276-0.324-0.321-0.524-0.142-1.176 0.338-1.234 0.962zM38.706 18.35c-0.058 0.303-0.111 0.601-0.169 0.931 0.089 0 0.177 0 0.263 0 0.342 0.001 0.667 0.001 0.993-0.009 0.031 0 0.080-0.085 0.089-0.138 0.045-0.222 0.087-0.446 0.129-0.669 0.077-0.412 0.154-0.823 0.252-1.228 0.218-0.899 0.586-1.211 1.46-1.327 0.036-0.004 0.093-0.045 0.102-0.076 0.056-0.256 0.106-0.514 0.158-0.781 0.026-0.137 0.054-0.277 0.082-0.421-0.844-0.089-1.314 0.401-1.722 1.002l0.006-0.086c0.020-0.266 0.040-0.537 0.064-0.822-0.092 0-0.183-0-0.272-0.001-0.263-0.001-0.515-0.002-0.767 0.005-0.036 0.004-0.102 0.085-0.107 0.134-0.095 1.144-0.319 2.264-0.543 3.382l-0.021 0.104z"></path>
<path fill="#fc461e" style="fill: var(--color7, #fc461e)" d="M26.953 9.367c-0.045-0.012-0.090-0.024-0.135-0.034-0.138 0-0.275 0-0.422 0.004-0.050 0.010-0.1 0.021-0.15 0.032-0.061 0.013-0.123 0.027-0.187 0.039-0.679 0.129-1.318 0.365-1.935 0.677-1.336 0.677-2.535 1.554-3.609 2.591-0.715 0.686-1.407 1.403-2.077 2.137-1.176 1.291-2.184 2.712-2.987 4.27-0.413 0.806-0.786 1.63-0.954 2.525-0.031 0.165 0.022 0.356 0.075 0.521 0.022 0.067 0.146 0.116 0.231 0.142 0.022 0.009 0.089-0.102 0.12-0.165 0.011-0.024 0.022-0.049 0.034-0.074 0.193-0.422 0.453-0.993 0.68-1.372 0.479-0.801 0.858-1.422 1.395-2.183 0.861-1.224 1.867-2.426 2.924-3.486 0.999-1.002 1.999-1.898 3.255-2.574 0.577-0.307 1.167-0.61 1.771-0.859 1.043-0.432 2.131-0.726 3.249-0.891 0.12-0.018 0.28-0.111 0.32-0.209 0.036-0.089-0.049-0.258-0.133-0.343-0.342-0.352-0.741-0.619-1.239-0.699-0.075-0.011-0.15-0.031-0.225-0.051zM16.791 15.442c0.213-0.579 0.32-1.18 0.333-1.803-0.006-0.067-0.011-0.134-0.016-0.2-0.010-0.134-0.020-0.267-0.037-0.401-0.12-1.033-0.564-1.91-1.27-2.663-0.084-0.085-0.2-0.151-0.315-0.191-0.115-0.045-0.191 0.022-0.182 0.156 0 0.003 0 0.006 0.001 0.008 0.009 0.113 0.018 0.23 0.039 0.343 0.031 0.178 0.062 0.356 0.093 0.534 0.11 0.634 0.221 1.269 0.342 1.901 0.12 0.637 0.253 1.269 0.395 1.897 0.049 0.2 0.129 0.401 0.226 0.588 0.075 0.142 0.182 0.129 0.28 0v0c0.044-0.053 0.089-0.107 0.111-0.169z"></path>
</symbol>
<symbol id="icon-paypal" viewBox="0 0 47 32">
<path fill="#253b80" style="fill: var(--color8, #253b80)" d="M13.428 20.321h-2.074c-0.142 0-0.263 0.103-0.285 0.243l-0.839 5.319c-0.017 0.105 0.065 0.2 0.171 0.2h0.99c0.142 0 0.263-0.103 0.285-0.244l0.226-1.435c0.022-0.14 0.143-0.244 0.284-0.244h0.657c1.366 0 2.155-0.661 2.361-1.971 0.093-0.573 0.004-1.024-0.265-1.339-0.295-0.346-0.818-0.53-1.512-0.53zM13.667 22.264c-0.113 0.744-0.682 0.744-1.232 0.744h-0.313l0.22-1.39c0.013-0.084 0.086-0.146 0.171-0.146h0.143c0.375 0 0.728-0 0.911 0.213 0.109 0.127 0.142 0.317 0.101 0.578zM19.628 22.24h-0.993c-0.085 0-0.158 0.062-0.171 0.146l-0.044 0.278-0.069-0.101c-0.215-0.312-0.694-0.416-1.173-0.416-1.098 0-2.035 0.831-2.218 1.997-0.095 0.582 0.040 1.138 0.37 1.526 0.303 0.357 0.736 0.505 1.251 0.505 0.884 0 1.375-0.569 1.375-0.569l-0.044 0.276c-0.017 0.106 0.065 0.2 0.17 0.2h0.895c0.142 0 0.262-0.103 0.285-0.243l0.537-3.4c0.017-0.105-0.064-0.2-0.17-0.2zM18.244 24.173c-0.096 0.567-0.546 0.948-1.121 0.948-0.288 0-0.519-0.092-0.667-0.268-0.147-0.174-0.203-0.422-0.156-0.698 0.090-0.563 0.547-0.956 1.113-0.956 0.282 0 0.511 0.094 0.662 0.27 0.151 0.179 0.211 0.428 0.168 0.703zM23.92 22.24h0.998c0.14 0 0.221 0.157 0.142 0.271l-3.32 4.792c-0.054 0.078-0.142 0.124-0.237 0.124h-0.997c-0.14 0-0.222-0.158-0.141-0.273l1.034-1.459-1.099-3.226c-0.038-0.112 0.045-0.229 0.164-0.229h0.981c0.127 0 0.24 0.084 0.277 0.206l0.583 1.949 1.377-2.028c0.054-0.079 0.143-0.126 0.239-0.126z"></path>
<path fill="#179bd7" style="fill: var(--color9, #179bd7)" d="M34.742 25.883l0.851-5.416c0.013-0.084 0.086-0.146 0.171-0.146h0.958c0.106 0 0.187 0.095 0.17 0.2l-0.839 5.318c-0.022 0.14-0.143 0.244-0.285 0.244h-0.856c-0.106 0-0.187-0.095-0.17-0.2zM28.223 20.321h-2.075c-0.142 0-0.262 0.103-0.284 0.243l-0.839 5.319c-0.017 0.105 0.065 0.2 0.171 0.2h1.064c0.099 0 0.184-0.072 0.199-0.17l0.238-1.508c0.022-0.14 0.143-0.244 0.285-0.244h0.656c1.367 0 2.155-0.661 2.361-1.971 0.093-0.573 0.004-1.024-0.265-1.339-0.295-0.346-0.817-0.53-1.511-0.53zM28.462 22.264c-0.113 0.744-0.682 0.744-1.232 0.744h-0.313l0.22-1.39c0.013-0.084 0.085-0.146 0.17-0.146h0.143c0.374 0 0.728 0 0.91 0.213 0.109 0.127 0.142 0.317 0.1 0.578zM34.422 22.24h-0.993c-0.085 0-0.158 0.062-0.171 0.146l-0.044 0.278-0.070-0.101c-0.215-0.312-0.694-0.416-1.173-0.416-1.098 0-2.035 0.831-2.217 1.997-0.095 0.582 0.040 1.138 0.37 1.526 0.303 0.357 0.736 0.505 1.251 0.505 0.884 0 1.375-0.569 1.375-0.569l-0.044 0.276c-0.017 0.106 0.065 0.2 0.171 0.2h0.894c0.142 0 0.262-0.103 0.285-0.244l0.537-3.4c0.016-0.105-0.065-0.2-0.171-0.2zM33.038 24.173c-0.095 0.567-0.546 0.948-1.121 0.948-0.288 0-0.519-0.092-0.667-0.268-0.147-0.174-0.202-0.422-0.156-0.698 0.090-0.563 0.547-0.956 1.113-0.956 0.282 0 0.511 0.094 0.662 0.27 0.152 0.179 0.212 0.428 0.168 0.703z"></path>
<path fill="#253b80" style="fill: var(--color8, #253b80)" d="M21.104 18.418l0.255-1.62-0.568-0.013h-2.712l1.885-11.952c0.006-0.036 0.025-0.070 0.053-0.094s0.063-0.037 0.1-0.037h4.573c1.518 0 2.566 0.316 3.113 0.94 0.256 0.293 0.42 0.598 0.499 0.935 0.083 0.353 0.084 0.775 0.003 1.289l-0.006 0.038v0.33l0.257 0.145c0.216 0.115 0.388 0.246 0.519 0.396 0.22 0.25 0.361 0.568 0.421 0.945 0.062 0.388 0.041 0.849-0.060 1.371-0.117 0.601-0.306 1.124-0.562 1.552-0.235 0.394-0.534 0.722-0.89 0.975-0.339 0.241-0.743 0.424-1.198 0.541-0.442 0.115-0.945 0.173-1.498 0.173h-0.356c-0.254 0-0.502 0.092-0.696 0.256-0.195 0.168-0.323 0.397-0.363 0.647l-0.027 0.146-0.451 2.855-0.020 0.105c-0.005 0.033-0.015 0.050-0.028 0.061-0.012 0.010-0.030 0.017-0.047 0.017h-2.197z"></path>
<path fill="#179bd7" style="fill: var(--color9, #179bd7)" d="M28.799 7.942c-0.014 0.087-0.029 0.176-0.047 0.268-0.603 3.097-2.667 4.166-5.302 4.166h-1.342c-0.322 0-0.594 0.234-0.644 0.552l-0.687 4.357-0.195 1.235c-0.033 0.209 0.128 0.397 0.339 0.397h2.38c0.282 0 0.521-0.205 0.565-0.483l0.023-0.121 0.448-2.844 0.029-0.156c0.044-0.279 0.284-0.484 0.565-0.484h0.356c2.306 0 4.111-0.936 4.638-3.645 0.22-1.132 0.106-2.077-0.477-2.741-0.176-0.2-0.395-0.367-0.651-0.502z"></path>
<path fill="#222d65" style="fill: var(--color10, #222d65)" d="M28.168 7.691c-0.092-0.027-0.187-0.051-0.285-0.073s-0.198-0.040-0.302-0.057c-0.362-0.059-0.758-0.086-1.183-0.086h-3.585c-0.088 0-0.172 0.020-0.247 0.056-0.165 0.079-0.288 0.236-0.318 0.428l-0.763 4.83-0.022 0.141c0.050-0.318 0.322-0.552 0.644-0.552h1.342c2.635 0 4.699-1.070 5.302-4.166 0.018-0.092 0.033-0.181 0.047-0.268-0.153-0.081-0.318-0.15-0.496-0.209-0.044-0.015-0.089-0.029-0.135-0.042z"></path>
<path fill="#253b80" style="fill: var(--color8, #253b80)" d="M22.249 7.958c0.030-0.192 0.153-0.348 0.318-0.427 0.076-0.036 0.159-0.056 0.247-0.056h3.585c0.425 0 0.821 0.028 1.183 0.086 0.103 0.017 0.204 0.036 0.302 0.057s0.193 0.046 0.285 0.073c0.046 0.014 0.091 0.028 0.135 0.042 0.178 0.059 0.343 0.129 0.496 0.209 0.18-1.144-0.001-1.923-0.62-2.629-0.682-0.777-1.913-1.109-3.489-1.109h-4.573c-0.322 0-0.596 0.234-0.646 0.552l-1.905 12.075c-0.038 0.239 0.147 0.454 0.388 0.454h2.824l0.709-4.498 0.763-4.83z"></path>
</symbol>
<symbol id="icon-arrow-left" viewBox="0 0 32 32">
<path fill="none" stroke="#fff" style="stroke: var(--color1, #fff)" stroke-linejoin="round" stroke-linecap="round" stroke-miterlimit="4" stroke-width="2.6667" d="M25.333 16h-18.667M6.667 16l9.333 9.333M6.667 16l9.333-9.333"></path>
</symbol>
<symbol id="icon-arrow-right" viewBox="0 0 32 32">
<path fill="none" stroke="#fff" style="stroke: var(--color1, #fff)" stroke-linejoin="round" stroke-linecap="round" stroke-miterlimit="4" stroke-width="2.6667" d="M6.667 16h18.667M25.333 16l-9.333-9.333M25.333 16l-9.333 9.333"></path>
</symbol>
<symbol id="icon-star" viewBox="0 0 32 32">
<path fill="#fff" style="fill: var(--color1, #fff)" d="M15.261 2.576c0.273-0.657 1.204-0.657 1.477 0l3.306 7.948c0.115 0.277 0.376 0.466 0.675 0.49l8.58 0.688c0.709 0.057 0.997 0.942 0.456 1.405l-6.537 5.6c-0.228 0.195-0.327 0.501-0.258 0.793l1.997 8.373c0.165 0.692-0.588 1.239-1.195 0.868l-7.346-4.487c-0.256-0.156-0.578-0.156-0.834 0l-7.346 4.487c-0.607 0.371-1.36-0.176-1.195-0.868l1.997-8.373c0.070-0.292-0.030-0.598-0.258-0.793l-6.537-5.6c-0.54-0.463-0.253-1.348 0.457-1.405l8.581-0.688c0.299-0.024 0.56-0.213 0.675-0.49l3.306-7.948z"></path>
</symbol>

<symbol id="icon-footer-appstore-badge" viewBox="0 0 108 32">
<path fill="none" stroke="#fff" style="stroke: var(--color1, #fff)" stroke-linejoin="miter" stroke-linecap="butt" stroke-miterlimit="4" stroke-width="0.8" d="M5.6 0.4h96.8c2.872 0 5.2 2.328 5.2 5.2v20.8c0 2.872-2.328 5.2-5.2 5.2h-96.8c-2.872 0-5.2-2.328-5.2-5.2v-20.8c0-2.872 2.328-5.2 5.2-5.2z"></path>
<path fill="#fff" style="fill: var(--color1, #fff)" d="M65.221 15.361v1.833h-1.149v1.202h1.149v4.084c0 1.395 0.631 1.952 2.218 1.952 0.279 0 0.545-0.033 0.777-0.073v-1.189c-0.199 0.020-0.325 0.033-0.544 0.033-0.711 0-1.023-0.332-1.023-1.089v-3.719h1.567v-1.202h-1.567v-1.833h-1.428z"></path>
<path fill="#fff" style="fill: var(--color1, #fff)" d="M72.259 24.532c2.112 0 3.407-1.414 3.407-3.759 0-2.331-1.302-3.752-3.407-3.752-2.112 0-3.413 1.421-3.413 3.752 0 2.344 1.295 3.759 3.413 3.759zM72.259 23.263c-1.242 0-1.939-0.91-1.939-2.49 0-1.567 0.697-2.484 1.939-2.484 1.235 0 1.939 0.916 1.939 2.484 0 1.574-0.704 2.49-1.939 2.49z"></path>
<path fill="#fff" style="fill: var(--color1, #fff)" d="M76.773 24.392h1.428v-4.27c0-1.016 0.764-1.7 1.846-1.7 0.252 0 0.678 0.046 0.797 0.086v-1.408c-0.153-0.040-0.425-0.060-0.638-0.060-0.943 0-1.746 0.518-1.952 1.228h-0.106v-1.109h-1.375v7.232z"></path>
<path fill="#fff" style="fill: var(--color1, #fff)" d="M84.389 18.236c1.056 0 1.746 0.737 1.78 1.873h-3.653c0.080-1.129 0.817-1.873 1.873-1.873zM86.162 22.44c-0.266 0.564-0.857 0.877-1.72 0.877-1.142 0-1.879-0.804-1.926-2.072v-0.080h5.107v-0.498c0-2.271-1.215-3.646-3.227-3.646-2.039 0-3.334 1.468-3.334 3.778s1.268 3.732 3.34 3.732c1.654 0 2.809-0.797 3.134-2.092h-1.374z"></path>
<path fill="#fff" style="fill: var(--color1, #fff)" d="M55.858 21.722c0.11 1.776 1.59 2.911 3.792 2.911 2.354 0 3.827-1.191 3.827-3.090 0-1.494-0.84-2.32-2.877-2.794l-1.094-0.268c-1.294-0.303-1.817-0.709-1.817-1.418 0-0.895 0.812-1.48 2.030-1.48 1.156 0 1.955 0.571 2.099 1.487h1.5c-0.089-1.673-1.562-2.85-3.579-2.85-2.168 0-3.614 1.177-3.614 2.946 0 1.459 0.819 2.326 2.616 2.746l1.28 0.31c1.315 0.31 1.893 0.764 1.893 1.521 0 0.881-0.909 1.521-2.147 1.521-1.328 0-2.251-0.599-2.381-1.542h-1.528z"></path>
<path fill="#fff" style="fill: var(--color1, #fff)" d="M41.068 17.041c-0.983 0-1.833 0.491-2.271 1.315h-0.106v-1.195h-1.375v9.636h1.428v-3.5h0.113c0.378 0.764 1.195 1.215 2.225 1.215 1.826 0 2.988-1.441 2.988-3.739s-1.162-3.732-3.002-3.732zM40.663 23.23c-1.195 0-1.946-0.943-1.946-2.45 0-1.514 0.75-2.457 1.952-2.457 1.209 0 1.932 0.923 1.932 2.45 0 1.534-0.724 2.457-1.939 2.457z"></path>
<path fill="#fff" style="fill: var(--color1, #fff)" d="M49.065 17.041c-0.983 0-1.833 0.491-2.271 1.315h-0.106v-1.195h-1.375v9.636h1.428v-3.5h0.113c0.378 0.764 1.195 1.215 2.225 1.215 1.826 0 2.988-1.441 2.988-3.739s-1.162-3.732-3.002-3.732zM48.66 23.23c-1.195 0-1.946-0.943-1.946-2.45 0-1.514 0.75-2.457 1.952-2.457 1.209 0 1.932 0.923 1.932 2.45 0 1.534-0.724 2.457-1.939 2.457z"></path>
<path fill="#fff" style="fill: var(--color1, #fff)" d="M34.754 24.392h1.638l-3.586-9.932h-1.659l-3.586 9.932h1.583l0.915-2.636h3.786l0.908 2.636zM31.898 16.263h0.117l1.439 4.198h-3.001l1.445-4.198z"></path>
<path fill="#fff" style="fill: var(--color1, #fff)" d="M28.521 6.969v4.791h1.73c1.428 0 2.254-0.88 2.254-2.411 0-1.507-0.833-2.381-2.254-2.381h-1.73zM29.265 7.646h0.903c0.993 0 1.58 0.631 1.58 1.713 0 1.099-0.578 1.723-1.58 1.723h-0.903v-3.437z"></path>
<path fill="#fff" style="fill: var(--color1, #fff)" d="M35.037 11.83c1.056 0 1.703-0.707 1.703-1.879 0-1.165-0.651-1.876-1.703-1.876-1.056 0-1.707 0.711-1.707 1.876 0 1.172 0.647 1.879 1.707 1.879zM35.037 11.196c-0.621 0-0.97-0.455-0.97-1.245 0-0.784 0.349-1.242 0.97-1.242 0.618 0 0.97 0.458 0.97 1.242 0 0.787-0.352 1.245-0.97 1.245z"></path>
<path fill="#fff" style="fill: var(--color1, #fff)" d="M42.254 8.144h-0.714l-0.644 2.759h-0.056l-0.744-2.759h-0.684l-0.744 2.759h-0.053l-0.647-2.759h-0.724l0.996 3.616h0.734l0.744-2.663h0.056l0.747 2.663h0.74l0.993-3.616z"></path>
<path fill="#fff" style="fill: var(--color1, #fff)" d="M43.076 11.76h0.714v-2.115c0-0.564 0.335-0.916 0.863-0.916s0.78 0.289 0.78 0.87v2.162h0.714v-2.341c0-0.86-0.445-1.345-1.252-1.345-0.544 0-0.903 0.242-1.079 0.644h-0.053v-0.574h-0.687v3.616z"></path>
<path fill="#fff" style="fill: var(--color1, #fff)" d="M47.272 11.76h0.714v-5.027h-0.714v5.027z"></path>
<path fill="#fff" style="fill: var(--color1, #fff)" d="M50.671 11.83c1.056 0 1.703-0.707 1.703-1.879 0-1.165-0.651-1.876-1.703-1.876-1.056 0-1.707 0.711-1.707 1.876 0 1.172 0.647 1.879 1.707 1.879zM50.671 11.196c-0.621 0-0.97-0.455-0.97-1.245 0-0.784 0.349-1.242 0.97-1.242 0.618 0 0.97 0.458 0.97 1.242 0 0.787-0.352 1.245-0.97 1.245z"></path>
<path fill="#fff" style="fill: var(--color1, #fff)" d="M54.501 11.219c-0.388 0-0.671-0.189-0.671-0.515 0-0.319 0.226-0.488 0.724-0.521l0.883-0.056v0.302c0 0.448-0.398 0.79-0.936 0.79zM54.318 11.82c0.475 0 0.87-0.206 1.086-0.568h0.056v0.508h0.687v-2.47c0-0.764-0.511-1.215-1.418-1.215-0.82 0-1.404 0.398-1.478 1.019h0.691c0.080-0.256 0.355-0.402 0.754-0.402 0.488 0 0.74 0.216 0.74 0.598v0.312l-0.98 0.056c-0.86 0.053-1.345 0.428-1.345 1.079 0 0.661 0.508 1.082 1.205 1.082z"></path>
<path fill="#fff" style="fill: var(--color1, #fff)" d="M58.57 11.82c0.498 0 0.92-0.236 1.136-0.631h0.056v0.571h0.684v-5.027h-0.714v1.986h-0.053c-0.196-0.398-0.614-0.634-1.109-0.634-0.913 0-1.501 0.724-1.501 1.866 0 1.146 0.581 1.869 1.501 1.869zM58.773 8.725c0.598 0 0.973 0.475 0.973 1.228 0 0.757-0.372 1.225-0.973 1.225-0.604 0-0.966-0.462-0.966-1.228 0-0.76 0.365-1.225 0.966-1.225z"></path>
<path fill="#fff" style="fill: var(--color1, #fff)" d="M65.076 11.83c1.056 0 1.703-0.707 1.703-1.879 0-1.165-0.651-1.876-1.703-1.876-1.056 0-1.707 0.711-1.707 1.876 0 1.172 0.648 1.879 1.707 1.879zM65.076 11.196c-0.621 0-0.97-0.455-0.97-1.245 0-0.784 0.349-1.242 0.97-1.242 0.618 0 0.97 0.458 0.97 1.242 0 0.787-0.352 1.245-0.97 1.245z"></path>
<path fill="#fff" style="fill: var(--color1, #fff)" d="M67.724 11.76h0.714v-2.115c0-0.564 0.335-0.916 0.863-0.916s0.78 0.289 0.78 0.87v2.162h0.714v-2.341c0-0.86-0.445-1.345-1.252-1.345-0.545 0-0.903 0.242-1.079 0.644h-0.053v-0.574h-0.687v3.616z"></path>
<path fill="#fff" style="fill: var(--color1, #fff)" d="M74.083 7.244v0.916h-0.574v0.601h0.574v2.042c0 0.697 0.315 0.976 1.109 0.976 0.14 0 0.272-0.017 0.388-0.037v-0.594c-0.1 0.010-0.163 0.017-0.272 0.017-0.355 0-0.511-0.166-0.511-0.544v-1.859h0.784v-0.601h-0.784v-0.916h-0.714z"></path>
<path fill="#fff" style="fill: var(--color1, #fff)" d="M76.539 11.76h0.714v-2.112c0-0.548 0.325-0.916 0.91-0.916 0.505 0 0.774 0.292 0.774 0.87v2.158h0.714v-2.334c0-0.86-0.475-1.348-1.245-1.348-0.545 0-0.926 0.242-1.102 0.647h-0.056v-1.992h-0.707v5.027z"></path>
<path fill="#fff" style="fill: var(--color1, #fff)" d="M82.225 8.682c0.528 0 0.874 0.369 0.89 0.936h-1.826c0.040-0.564 0.408-0.936 0.936-0.936zM83.111 10.784c-0.133 0.282-0.428 0.438-0.86 0.438-0.57 0-0.939-0.402-0.962-1.036v-0.040h2.553v-0.249c0-1.136-0.607-1.823-1.614-1.823-1.019 0-1.666 0.734-1.666 1.889s0.634 1.866 1.67 1.866c0.827 0 1.405-0.398 1.567-1.046h-0.687z"></path>
<path fill="#fff" style="fill: var(--color1, #fff)" d="M19.815 16.241c0.017-1.345 0.74-2.617 1.885-3.322-0.723-1.032-1.933-1.687-3.193-1.726-1.343-0.141-2.646 0.804-3.33 0.804-0.698 0-1.752-0.79-2.887-0.766-1.479 0.048-2.859 0.889-3.578 2.182-1.547 2.679-0.393 6.616 1.089 8.781 0.742 1.060 1.608 2.245 2.742 2.203 1.11-0.046 1.524-0.708 2.864-0.708 1.327 0 1.716 0.708 2.873 0.681 1.191-0.019 1.941-1.065 2.656-2.135 0.533-0.756 0.943-1.59 1.215-2.474-1.399-0.592-2.334-2-2.335-3.519z"></path>
<path fill="#fff" style="fill: var(--color1, #fff)" d="M17.63 9.769c0.649-0.779 0.969-1.781 0.892-2.793-0.992 0.104-1.908 0.578-2.566 1.328-0.643 0.732-0.978 1.716-0.915 2.689 0.992 0.010 1.968-0.451 2.589-1.224z"></path>
</symbol>

<symbol id="icon-footer-googleplay-badge" viewBox="0 0 108 32">
<path fill="none" stroke="#fff" style="stroke: var(--color1, #fff)" stroke-linejoin="miter" stroke-linecap="butt" stroke-miterlimit="4" stroke-width="0.8" d="M4 0.4h100c1.988 0 3.6 1.612 3.6 3.6v24c0 1.988-1.612 3.6-3.6 3.6h-100c-1.988 0-3.6-1.612-3.6-3.6v-24c0-1.988 1.612-3.6 3.6-3.6z"></path>
<path fill="#fff" style="fill: var(--color1, #fff)" d="M54.509 17.401c-1.882 0-3.415 1.431-3.415 3.402 0 1.959 1.534 3.402 3.415 3.402s3.416-1.443 3.416-3.402c-0.001-1.971-1.534-3.402-3.416-3.402zM54.509 22.866c-1.031 0-1.92-0.85-1.92-2.062 0-1.225 0.89-2.062 1.92-2.062s1.92 0.838 1.92 2.062c0 1.211-0.889 2.062-1.92 2.062zM47.058 17.401c-1.882 0-3.415 1.431-3.415 3.402 0 1.959 1.534 3.402 3.415 3.402s3.416-1.443 3.416-3.402c0-1.971-1.534-3.402-3.416-3.402zM47.058 22.866c-1.031 0-1.92-0.85-1.92-2.062 0-1.225 0.89-2.062 1.92-2.062s1.92 0.838 1.92 2.062c0.001 1.211-0.889 2.062-1.92 2.062zM38.195 18.446v1.443h3.454c-0.103 0.812-0.374 1.405-0.786 1.817-0.502 0.502-1.289 1.057-2.668 1.057-2.126 0-3.789-1.714-3.789-3.841s1.662-3.841 3.789-3.841c1.147 0 1.985 0.451 2.603 1.031l1.018-1.018c-0.864-0.825-2.010-1.456-3.622-1.456-2.913 0-5.362 2.371-5.362 5.284s2.449 5.284 5.362 5.284c1.572 0 2.758-0.516 3.686-1.482 0.954-0.954 1.25-2.294 1.25-3.377 0-0.334-0.026-0.644-0.078-0.902l-4.858 0.001zM74.442 19.566c-0.283-0.76-1.147-2.166-2.913-2.166-1.753 0-3.21 1.379-3.21 3.402 0 1.907 1.444 3.402 3.377 3.402 1.559 0 2.462-0.954 2.836-1.508l-1.16-0.774c-0.386 0.567-0.915 0.941-1.676 0.941s-1.302-0.348-1.65-1.031l4.55-1.882-0.154-0.386zM69.802 20.701c-0.038-1.315 1.018-1.985 1.779-1.985 0.593 0 1.095 0.297 1.263 0.722l-3.042 1.263zM66.103 24h1.494v-10.001h-1.494v10.001zM63.654 18.162h-0.051c-0.335-0.4-0.98-0.761-1.791-0.761-1.702 0-3.261 1.495-3.261 3.416 0 1.907 1.559 3.39 3.261 3.39 0.812 0 1.456-0.361 1.791-0.773h0.051v0.49c0 1.302-0.696 1.998-1.817 1.998-0.915 0-1.482-0.657-1.714-1.211l-1.302 0.542c0.374 0.902 1.366 2.010 3.016 2.010 1.753 0 3.235-1.031 3.235-3.545v-6.109h-1.418v0.554h-0.001zM61.94 22.866c-1.031 0-1.894-0.864-1.894-2.050 0-1.199 0.863-2.075 1.894-2.075 1.018 0 1.817 0.876 1.817 2.075 0 1.186-0.799 2.050-1.817 2.050zM81.445 13.999h-3.577v10.001h1.492v-3.789h2.084c1.654 0 3.282-1.198 3.282-3.106s-1.626-3.106-3.281-3.106zM81.483 18.819h-2.123v-3.428h2.123c1.116 0 1.75 0.924 1.75 1.714 0 0.774-0.634 1.714-1.75 1.714zM90.709 17.383c-1.081 0-2.2 0.476-2.663 1.531l1.325 0.553c0.283-0.553 0.811-0.734 1.364-0.734 0.772 0 1.557 0.463 1.57 1.286v0.103c-0.27-0.154-0.85-0.386-1.557-0.386-1.428 0-2.882 0.785-2.882 2.251 0 1.338 1.171 2.2 2.483 2.2 1.003 0 1.557-0.45 1.904-0.978h0.051v0.772h1.442v-3.834c0.001-1.774-1.326-2.765-3.036-2.765zM90.528 22.864c-0.488 0-1.17-0.245-1.17-0.85 0-0.772 0.85-1.068 1.583-1.068 0.655 0 0.965 0.142 1.363 0.334-0.116 0.927-0.914 1.583-1.776 1.583zM98.994 17.602l-1.711 4.336h-0.051l-1.776-4.336h-1.608l2.663 6.060-1.518 3.371h1.557l4.105-9.431h-1.66zM85.55 24h1.492v-10.001h-1.492v10.001z"></path>
<path fill="#fff" style="fill: var(--color1, #fff)" d="M37.934 8.194c0 0.67-0.198 1.204-0.596 1.602-0.451 0.474-1.040 0.71-1.763 0.71-0.693 0-1.282-0.24-1.766-0.72s-0.727-1.076-0.727-1.786c0-0.711 0.242-1.306 0.727-1.786s1.074-0.721 1.766-0.721c0.344 0 0.673 0.067 0.985 0.201s0.563 0.313 0.75 0.536l-0.422 0.422c-0.318-0.38-0.755-0.57-1.314-0.57-0.506 0-0.942 0.178-1.311 0.533s-0.553 0.817-0.553 1.384c0 0.567 0.184 1.029 0.553 1.384s0.806 0.533 1.311 0.533c0.536 0 0.983-0.178 1.341-0.536 0.232-0.233 0.366-0.557 0.402-0.972h-1.743v-0.577h2.326c0.024 0.126 0.034 0.246 0.034 0.362z"></path>
<path fill="#fff" style="fill: var(--color1, #fff)" d="M41.622 6.19h-2.186v1.522h1.971v0.577h-1.971v1.522h2.186v0.59h-2.802v-4.8h2.802v0.59z"></path>
<path fill="#fff" style="fill: var(--color1, #fff)" d="M44.223 10.4h-0.617v-4.21h-1.341v-0.59h3.298v0.59h-1.341v4.21z"></path>
<path fill="#fff" style="fill: var(--color1, #fff)" d="M47.95 10.4v-4.8h0.617v4.8h-0.617z"></path>
<path fill="#fff" style="fill: var(--color1, #fff)" d="M51.302 10.4h-0.617v-4.21h-1.341v-0.59h3.298v0.59h-1.341v4.21z"></path>
<path fill="#fff" style="fill: var(--color1, #fff)" d="M58.887 9.78c-0.472 0.485-1.058 0.727-1.76 0.727s-1.288-0.242-1.759-0.727c-0.472-0.485-0.707-1.078-0.707-1.78s0.235-1.295 0.707-1.78c0.471-0.485 1.058-0.728 1.759-0.728 0.698 0 1.283 0.244 1.757 0.731s0.71 1.079 0.71 1.777c0 0.702-0.236 1.295-0.707 1.78zM55.823 9.378c0.355 0.36 0.79 0.539 1.304 0.539s0.95-0.18 1.304-0.539c0.355-0.36 0.534-0.819 0.534-1.378s-0.178-1.018-0.534-1.378c-0.354-0.36-0.79-0.539-1.304-0.539s-0.949 0.18-1.304 0.539c-0.354 0.36-0.533 0.819-0.533 1.378s0.178 1.018 0.533 1.378z"></path>
<path fill="#fff" style="fill: var(--color1, #fff)" d="M60.46 10.4v-4.8h0.75l2.333 3.734h0.026l-0.026-0.925v-2.809h0.617v4.8h-0.644l-2.441-3.915h-0.026l0.026 0.925v2.99h-0.615z"></path>
<path fill="#fff" style="fill: var(--color1, #fff)" d="M8.125 6.373c-0.095 0.214-0.147 0.476-0.147 0.781v17.693c0 0.306 0.052 0.568 0.147 0.782l9.627-9.628-9.627-9.627zM8.681 26.204c0.357 0.153 0.822 0.104 1.33-0.184l11.326-6.436-3.019-3.019-9.637 9.638zM22.059 19.176l3.553-2.019c1.118-0.636 1.118-1.675 0-2.31l-3.555-2.020-3.173 3.174 3.175 3.175zM21.336 12.416l-11.325-6.435c-0.508-0.288-0.973-0.337-1.33-0.184l9.637 9.637 3.018-3.018z"></path>
</symbol>
<symbol id="icon-twitter" viewBox="0 0 32 32">
<path fill="#98a2b3" style="fill: var(--color1, #98a2b3)" d="M10.067 29c12.072 0 18.678-10.004 18.678-18.678 0-0.281-0.006-0.569-0.019-0.85 1.285-0.929 2.394-2.080 3.274-3.399-1.197 0.532-2.467 0.88-3.768 1.031 1.37-0.821 2.395-2.111 2.887-3.631-1.289 0.764-2.698 1.302-4.168 1.593-0.99-1.052-2.299-1.749-3.725-1.982s-2.889 0.009-4.163 0.691c-1.274 0.681-2.288 1.763-2.885 3.079s-0.745 2.791-0.419 4.199c-2.609-0.131-5.162-0.809-7.493-1.99s-4.387-2.838-6.036-4.865c-0.838 1.445-1.095 3.155-0.717 4.782s1.36 3.050 2.748 3.979c-1.042-0.033-2.062-0.314-2.974-0.819v0.081c-0.001 1.516 0.523 2.986 1.484 4.16s2.297 1.978 3.784 2.278c-0.966 0.264-1.979 0.303-2.962 0.113 0.419 1.304 1.236 2.445 2.335 3.263s2.426 1.272 3.795 1.3c-2.325 1.827-5.198 2.817-8.154 2.813-0.524-0.001-1.048-0.033-1.569-0.096 3.004 1.927 6.498 2.951 10.067 2.949z"></path>
</symbol>
<symbol id="icon-linkedin" viewBox="0 0 32 32">
<path fill="#98a2b3" style="fill: var(--color1, #98a2b3)" d="M29.631 0h-27.269c-1.306 0-2.362 1.031-2.362 2.306v27.381c0 1.275 1.056 2.313 2.362 2.313h27.269c1.306 0 2.369-1.037 2.369-2.306v-27.387c0-1.275-1.063-2.306-2.369-2.306zM9.494 27.269h-4.75v-15.275h4.75v15.275zM7.119 9.912c-1.525 0-2.756-1.231-2.756-2.75s1.231-2.75 2.756-2.75c1.519 0 2.75 1.231 2.75 2.75 0 1.512-1.231 2.75-2.75 2.75zM27.269 27.269h-4.744v-7.425c0-1.769-0.031-4.050-2.469-4.050-2.469 0-2.844 1.931-2.844 3.925v7.55h-4.738v-15.275h4.55v2.087h0.063c0.631-1.2 2.181-2.469 4.488-2.469 4.806 0 5.694 3.163 5.694 7.275v8.381z"></path>
</symbol>
<symbol id="icon-facebook" viewBox="0 0 32 32">
<path fill="#98a2b3" style="fill: var(--color1, #98a2b3)" d="M32 16c0-8.837-7.163-16-16-16s-16 7.163-16 16c0 7.986 5.851 14.605 13.5 15.806v-11.181h-4.063v-4.625h4.063v-3.525c0-4.010 2.389-6.225 6.043-6.225 1.75 0 3.582 0.313 3.582 0.313v3.938h-2.018c-1.987 0-2.607 1.233-2.607 2.5v3h4.437l-0.709 4.625h-3.728v11.181c7.649-1.2 13.5-7.82 13.5-15.806z"></path>
</symbol>
</defs>
</svg>
